<?xml version="1.0" encoding="utf-8" standalone="no"?>
<!DOCTYPE svg PUBLIC "-//W3C//DTD SVG 1.1//EN"
  "http://www.w3.org/Graphics/SVG/1.1/DTD/svg11.dtd">
<svg xmlns:xlink="http://www.w3.org/1999/xlink" width="507.390785pt" height="209.653605pt" viewBox="0 0 507.390785 209.653605" xmlns="http://www.w3.org/2000/svg" version="1.1">
 <metadata>
  <rdf:RDF xmlns:dc="http://purl.org/dc/elements/1.1/" xmlns:cc="http://creativecommons.org/ns#" xmlns:rdf="http://www.w3.org/1999/02/22-rdf-syntax-ns#">
   <cc:Work>
    <dc:type rdf:resource="http://purl.org/dc/dcmitype/StillImage"/>
    <dc:date>2024-04-07T22:14:56.427145</dc:date>
    <dc:format>image/svg+xml</dc:format>
    <dc:creator>
     <cc:Agent>
      <dc:title>Matplotlib v3.8.0, https://matplotlib.org/</dc:title>
     </cc:Agent>
    </dc:creator>
   </cc:Work>
  </rdf:RDF>
 </metadata>
 <defs>
  <style type="text/css">*{stroke-linejoin: round; stroke-linecap: butt}</style>
 </defs>
 <g id="figure_1">
  <g id="patch_1">
   <path d="M 0 209.653605 
L 507.390785 209.653605 
L 507.390785 -0 
L 0 -0 
z
" style="fill: #ffffff"/>
  </g>
  <g id="axes_1">
   <g id="patch_2">
    <path d="M 58.644638 146.22492 
L 135.734584 146.22492 
L 135.734584 42.325693 
L 58.644638 42.325693 
z
" style="fill: #ffffff"/>
   </g>
   <g id="PathCollection_1">
    <defs>
     <path id="m7e8edc889f" d="M 0 2 
C 0.530406 2 1.03916 1.789267 1.414214 1.414214 
C 1.789267 1.03916 2 0.530406 2 0 
C 2 -0.530406 1.789267 -1.03916 1.414214 -1.414214 
C 1.03916 -1.789267 0.530406 -2 0 -2 
C -0.530406 -2 -1.03916 -1.789267 -1.414214 -1.414214 
C -1.789267 -1.03916 -2 -0.530406 -2 0 
C -2 0.530406 -1.789267 1.03916 -1.414214 1.414214 
C -1.03916 1.789267 -0.530406 2 0 2 
z
" style="stroke: #1f77b4"/>
    </defs>
    <g clip-path="url(#pcd4936060c)">
     <use xlink:href="#m7e8edc889f" x="88.765641" y="96.148414" style="fill: #1f77b4; stroke: #1f77b4"/>
    </g>
   </g>
   <g id="PathCollection_2">
    <defs>
     <path id="m2259f71dbe" d="M -0 2 
L 2 -2 
L -2 -2 
z
" style="stroke: #aec7e8"/>
    </defs>
    <g clip-path="url(#pcd4936060c)">
     <use xlink:href="#m2259f71dbe" x="132.230496" y="47.048385" style="fill: #aec7e8; stroke: #aec7e8"/>
    </g>
   </g>
   <g id="PathCollection_3">
    <defs>
     <path id="me59e015414" d="M 0 -2 
L -2 2 
L 2 2 
z
" style="stroke: #ff7f0e"/>
    </defs>
    <g clip-path="url(#pcd4936060c)">
     <use xlink:href="#me59e015414" x="62.148726" y="141.502228" style="fill: #ff7f0e; stroke: #ff7f0e"/>
    </g>
   </g>
   <g id="PathCollection_4">
    <defs>
     <path id="m56bbbe85bc" d="M 2 0 
L -2 -2 
L -2 2 
z
" style="stroke: #2ca02c"/>
    </defs>
    <g clip-path="url(#pcd4936060c)">
     <use xlink:href="#m56bbbe85bc" x="66.537686" y="113.445544" style="fill: #2ca02c; stroke: #2ca02c"/>
    </g>
   </g>
   <g id="PathCollection_5">
    <defs>
     <path id="m2914ab49ba" d="M -2 2 
L 2 2 
L 2 -2 
L -2 -2 
z
" style="stroke: #98df8a"/>
    </defs>
    <g clip-path="url(#pcd4936060c)">
     <use xlink:href="#m2914ab49ba" x="101.790939" y="72.287091" style="fill: #98df8a; stroke: #98df8a"/>
    </g>
   </g>
   <g id="PathCollection_6">
    <defs>
     <path id="ma52ec8b127" d="M 0 -2 
L -1.902113 -0.618034 
L -1.175571 1.618034 
L 1.175571 1.618034 
L 1.902113 -0.618034 
z
" style="stroke: #d62728"/>
    </defs>
    <g clip-path="url(#pcd4936060c)">
     <use xlink:href="#ma52ec8b127" x="66.820844" y="114.520169" style="fill: #d62728; stroke: #d62728"/>
    </g>
   </g>
   <g id="PathCollection_7">
    <defs>
     <path id="m09fdef36f8" d="M 0 -2 
L -0.449028 -0.618034 
L -1.902113 -0.618034 
L -0.726543 0.236068 
L -1.175571 1.618034 
L -0 0.763932 
L 1.175571 1.618034 
L 0.726543 0.236068 
L 1.902113 -0.618034 
L 0.449028 -0.618034 
z
" style="stroke: #ff9896"/>
    </defs>
    <g clip-path="url(#pcd4936060c)">
     <use xlink:href="#m09fdef36f8" x="99.667249" y="65.3536" style="fill: #ff9896; stroke: #ff9896"/>
    </g>
   </g>
   <g id="matplotlib.axis_1">
    <g id="xtick_1">
     <g id="line2d_1">
      <path d="M 90.464593 146.22492 
L 90.464593 42.325693 
" clip-path="url(#pcd4936060c)" style="fill: none; stroke-dasharray: 1.11,0.48; stroke-dashoffset: 0; stroke: #a5a5a5; stroke-width: 0.3"/>
     </g>
     <g id="line2d_2">
      <defs>
       <path id="maa0907d438" d="M 0 0 
L 0 3.5 
" style="stroke: #000000; stroke-width: 0.8"/>
      </defs>
      <g>
       <use xlink:href="#maa0907d438" x="90.464593" y="146.22492" style="stroke: #000000; stroke-width: 0.8"/>
      </g>
     </g>
     <g id="text_1">
      <!-- $\mathdefault{1.0}$ -->
      <g transform="translate(85.054248 158.759722) scale(0.08 -0.08)">
       <defs>
        <path id="CMR17-31" d="M 1702 4058 
C 1702 4192 1696 4192 1606 4192 
C 1357 3916 979 3827 621 3827 
C 602 3827 570 3827 563 3808 
C 557 3795 557 3782 557 3648 
C 755 3648 1088 3686 1344 3839 
L 1344 461 
C 1344 236 1331 160 781 160 
L 589 160 
L 589 0 
C 896 0 1216 0 1523 0 
C 1830 0 2150 0 2458 0 
L 2458 160 
L 2266 160 
C 1715 160 1702 230 1702 458 
L 1702 4058 
z
" transform="scale(0.015625)"/>
        <path id="CMMI12-3a" d="M 1178 307 
C 1178 492 1024 619 870 619 
C 685 619 557 466 557 313 
C 557 128 710 0 864 0 
C 1050 0 1178 153 1178 307 
z
" transform="scale(0.015625)"/>
        <path id="CMR17-30" d="M 2688 2025 
C 2688 2416 2682 3080 2413 3591 
C 2176 4039 1798 4198 1466 4198 
C 1158 4198 768 4058 525 3597 
C 269 3118 243 2524 243 2025 
C 243 1661 250 1106 448 619 
C 723 -39 1216 -128 1466 -128 
C 1760 -128 2208 -7 2470 600 
C 2662 1042 2688 1559 2688 2025 
z
M 1466 -26 
C 1056 -26 813 325 723 812 
C 653 1188 653 1738 653 2096 
C 653 2588 653 2997 736 3387 
C 858 3929 1216 4096 1466 4096 
C 1728 4096 2067 3923 2189 3400 
C 2272 3036 2278 2607 2278 2096 
C 2278 1680 2278 1169 2202 792 
C 2067 95 1690 -26 1466 -26 
z
" transform="scale(0.015625)"/>
       </defs>
       <use xlink:href="#CMR17-31" transform="scale(0.996264)"/>
       <use xlink:href="#CMMI12-3a" transform="translate(45.690477 0) scale(0.996264)"/>
       <use xlink:href="#CMR17-30" transform="translate(72.787654 0) scale(0.996264)"/>
      </g>
     </g>
    </g>
    <g id="xtick_2">
     <g id="line2d_3">
      <path d="M 125.859426 146.22492 
L 125.859426 42.325693 
" clip-path="url(#pcd4936060c)" style="fill: none; stroke-dasharray: 1.11,0.48; stroke-dashoffset: 0; stroke: #a5a5a5; stroke-width: 0.3"/>
     </g>
     <g id="line2d_4">
      <g>
       <use xlink:href="#maa0907d438" x="125.859426" y="146.22492" style="stroke: #000000; stroke-width: 0.8"/>
      </g>
     </g>
     <g id="text_2">
      <!-- $\mathdefault{1.5}$ -->
      <g transform="translate(120.449081 158.759722) scale(0.08 -0.08)">
       <defs>
        <path id="CMR17-35" d="M 730 3692 
C 794 3666 1056 3584 1325 3584 
C 1920 3584 2246 3911 2432 4100 
C 2432 4157 2432 4192 2394 4192 
C 2387 4192 2374 4192 2323 4163 
C 2099 4058 1837 3973 1517 3973 
C 1325 3973 1037 3999 723 4139 
C 653 4171 640 4171 634 4171 
C 602 4171 595 4164 595 4037 
L 595 2203 
C 595 2089 595 2057 659 2057 
C 691 2057 704 2070 736 2114 
C 941 2401 1222 2522 1542 2522 
C 1766 2522 2246 2382 2246 1289 
C 2246 1085 2246 715 2054 421 
C 1894 159 1645 25 1370 25 
C 947 25 518 320 403 814 
C 429 807 480 795 506 795 
C 589 795 749 840 749 1038 
C 749 1210 627 1280 506 1280 
C 358 1280 262 1190 262 1011 
C 262 454 704 -128 1382 -128 
C 2042 -128 2669 440 2669 1264 
C 2669 2030 2170 2624 1549 2624 
C 1222 2624 947 2503 730 2274 
L 730 3692 
z
" transform="scale(0.015625)"/>
       </defs>
       <use xlink:href="#CMR17-31" transform="scale(0.996264)"/>
       <use xlink:href="#CMMI12-3a" transform="translate(45.690477 0) scale(0.996264)"/>
       <use xlink:href="#CMR17-35" transform="translate(72.787654 0) scale(0.996264)"/>
      </g>
     </g>
    </g>
    <g id="text_3">
     <!-- $\times\mathdefault{10^{−13}}\mathdefault{}$ -->
     <g transform="translate(107.617747 169.254976) scale(0.08 -0.08)">
      <defs>
       <path id="CMSY10-2" d="M 2490 1785 
L 1210 3059 
C 1133 3136 1120 3148 1069 3148 
C 1005 3148 941 3091 941 3020 
C 941 2976 954 2963 1024 2892 
L 2304 1606 
L 1024 320 
C 954 249 941 236 941 192 
C 941 121 1005 64 1069 64 
C 1120 64 1133 76 1210 153 
L 2483 1427 
L 3808 102 
C 3821 96 3866 64 3904 64 
C 3981 64 4032 121 4032 192 
C 4032 204 4032 230 4013 262 
C 4006 275 2989 1280 2669 1606 
L 3840 2777 
C 3872 2816 3968 2899 4000 2937 
C 4006 2950 4032 2976 4032 3020 
C 4032 3091 3981 3148 3904 3148 
C 3853 3148 3827 3123 3757 3052 
L 2490 1785 
z
" transform="scale(0.015625)"/>
       <path id="CMSY10-0" d="M 4218 1472 
C 4326 1472 4442 1472 4442 1600 
C 4442 1728 4326 1728 4218 1728 
L 755 1728 
C 646 1728 531 1728 531 1600 
C 531 1472 646 1472 755 1472 
L 4218 1472 
z
" transform="scale(0.015625)"/>
       <path id="CMR17-33" d="M 1414 2157 
C 1984 2157 2234 1662 2234 1090 
C 2234 320 1824 25 1453 25 
C 1114 25 563 194 390 693 
C 422 680 454 680 486 680 
C 640 680 755 782 755 948 
C 755 1133 614 1216 486 1216 
C 378 1216 211 1165 211 926 
C 211 335 787 -128 1466 -128 
C 2176 -128 2720 430 2720 1085 
C 2720 1707 2208 2157 1600 2227 
C 2086 2328 2554 2756 2554 3329 
C 2554 3820 2048 4179 1472 4179 
C 890 4179 378 3829 378 3329 
C 378 3110 544 3072 627 3072 
C 762 3072 877 3155 877 3321 
C 877 3486 762 3569 627 3569 
C 602 3569 570 3569 544 3557 
C 730 3959 1235 4032 1459 4032 
C 1683 4032 2106 3925 2106 3320 
C 2106 3143 2080 2828 1862 2550 
C 1670 2304 1453 2304 1242 2284 
C 1210 2284 1062 2269 1037 2269 
C 992 2263 966 2257 966 2208 
C 966 2163 973 2157 1101 2157 
L 1414 2157 
z
" transform="scale(0.015625)"/>
      </defs>
      <use xlink:href="#CMSY10-2" transform="scale(0.996264)"/>
      <use xlink:href="#CMR17-31" transform="translate(77.487468 0) scale(0.996264)"/>
      <use xlink:href="#CMR17-30" transform="translate(123.177945 0) scale(0.996264)"/>
      <use xlink:href="#CMSY10-0" transform="translate(168.868422 36.153639) scale(0.697382)"/>
      <use xlink:href="#CMR17-31" transform="translate(223.109415 36.153639) scale(0.697382)"/>
      <use xlink:href="#CMR17-33" transform="translate(255.092597 36.153639) scale(0.697382)"/>
     </g>
    </g>
   </g>
   <g id="matplotlib.axis_2">
    <g id="ytick_1">
     <g id="line2d_5">
      <path d="M 58.644638 145.318309 
L 135.734584 145.318309 
" clip-path="url(#pcd4936060c)" style="fill: none; stroke-dasharray: 1.11,0.48; stroke-dashoffset: 0; stroke: #a5a5a5; stroke-width: 0.3"/>
     </g>
     <g id="line2d_6">
      <defs>
       <path id="m613f803c68" d="M 0 0 
L -3.5 0 
" style="stroke: #000000; stroke-width: 0.8"/>
      </defs>
      <g>
       <use xlink:href="#m613f803c68" x="58.644638" y="145.318309" style="stroke: #000000; stroke-width: 0.8"/>
      </g>
     </g>
     <g id="text_4">
      <!-- $\mathdefault{20000}$ -->
      <g transform="translate(30.473724 148.08571) scale(0.08 -0.08)">
       <defs>
        <path id="CMR17-32" d="M 2669 989 
L 2554 989 
C 2490 536 2438 459 2413 420 
C 2381 369 1920 369 1830 369 
L 602 369 
C 832 619 1280 1072 1824 1597 
C 2214 1967 2669 2402 2669 3035 
C 2669 3790 2067 4224 1395 4224 
C 691 4224 262 3604 262 3030 
C 262 2780 448 2748 525 2748 
C 589 2748 781 2787 781 3010 
C 781 3207 614 3264 525 3264 
C 486 3264 448 3258 422 3245 
C 544 3790 915 4058 1306 4058 
C 1862 4058 2227 3617 2227 3035 
C 2227 2479 1901 2000 1536 1584 
L 262 146 
L 262 0 
L 2515 0 
L 2669 989 
z
" transform="scale(0.015625)"/>
       </defs>
       <use xlink:href="#CMR17-32" transform="scale(0.996264)"/>
       <use xlink:href="#CMR17-30" transform="translate(45.690477 0) scale(0.996264)"/>
       <use xlink:href="#CMR17-30" transform="translate(91.380954 0) scale(0.996264)"/>
       <use xlink:href="#CMR17-30" transform="translate(137.071431 0) scale(0.996264)"/>
       <use xlink:href="#CMR17-30" transform="translate(182.761908 0) scale(0.996264)"/>
      </g>
     </g>
    </g>
    <g id="ytick_2">
     <g id="line2d_7">
      <path d="M 58.644638 112.048199 
L 135.734584 112.048199 
" clip-path="url(#pcd4936060c)" style="fill: none; stroke-dasharray: 1.11,0.48; stroke-dashoffset: 0; stroke: #a5a5a5; stroke-width: 0.3"/>
     </g>
     <g id="line2d_8">
      <g>
       <use xlink:href="#m613f803c68" x="58.644638" y="112.048199" style="stroke: #000000; stroke-width: 0.8"/>
      </g>
     </g>
     <g id="text_5">
      <!-- $\mathdefault{30000}$ -->
      <g transform="translate(30.473724 114.8156) scale(0.08 -0.08)">
       <use xlink:href="#CMR17-33" transform="scale(0.996264)"/>
       <use xlink:href="#CMR17-30" transform="translate(45.690477 0) scale(0.996264)"/>
       <use xlink:href="#CMR17-30" transform="translate(91.380954 0) scale(0.996264)"/>
       <use xlink:href="#CMR17-30" transform="translate(137.071431 0) scale(0.996264)"/>
       <use xlink:href="#CMR17-30" transform="translate(182.761908 0) scale(0.996264)"/>
      </g>
     </g>
    </g>
    <g id="ytick_3">
     <g id="line2d_9">
      <path d="M 58.644638 78.778089 
L 135.734584 78.778089 
" clip-path="url(#pcd4936060c)" style="fill: none; stroke-dasharray: 1.11,0.48; stroke-dashoffset: 0; stroke: #a5a5a5; stroke-width: 0.3"/>
     </g>
     <g id="line2d_10">
      <g>
       <use xlink:href="#m613f803c68" x="58.644638" y="78.778089" style="stroke: #000000; stroke-width: 0.8"/>
      </g>
     </g>
     <g id="text_6">
      <!-- $\mathdefault{40000}$ -->
      <g transform="translate(30.473724 81.54549) scale(0.08 -0.08)">
       <defs>
        <path id="CMR17-34" d="M 2150 4122 
C 2150 4256 2144 4256 2029 4256 
L 128 1254 
L 128 1088 
L 1779 1088 
L 1779 457 
C 1779 224 1766 160 1318 160 
L 1197 160 
L 1197 0 
C 1402 0 1747 0 1965 0 
C 2182 0 2528 0 2733 0 
L 2733 160 
L 2611 160 
C 2163 160 2150 224 2150 457 
L 2150 1088 
L 2803 1088 
L 2803 1254 
L 2150 1254 
L 2150 4122 
z
M 1798 3703 
L 1798 1254 
L 256 1254 
L 1798 3703 
z
" transform="scale(0.015625)"/>
       </defs>
       <use xlink:href="#CMR17-34" transform="scale(0.996264)"/>
       <use xlink:href="#CMR17-30" transform="translate(45.690477 0) scale(0.996264)"/>
       <use xlink:href="#CMR17-30" transform="translate(91.380954 0) scale(0.996264)"/>
       <use xlink:href="#CMR17-30" transform="translate(137.071431 0) scale(0.996264)"/>
       <use xlink:href="#CMR17-30" transform="translate(182.761908 0) scale(0.996264)"/>
      </g>
     </g>
    </g>
    <g id="ytick_4">
     <g id="line2d_11">
      <path d="M 58.644638 45.507979 
L 135.734584 45.507979 
" clip-path="url(#pcd4936060c)" style="fill: none; stroke-dasharray: 1.11,0.48; stroke-dashoffset: 0; stroke: #a5a5a5; stroke-width: 0.3"/>
     </g>
     <g id="line2d_12">
      <g>
       <use xlink:href="#m613f803c68" x="58.644638" y="45.507979" style="stroke: #000000; stroke-width: 0.8"/>
      </g>
     </g>
     <g id="text_7">
      <!-- $\mathdefault{50000}$ -->
      <g transform="translate(30.473724 48.27538) scale(0.08 -0.08)">
       <use xlink:href="#CMR17-35" transform="scale(0.996264)"/>
       <use xlink:href="#CMR17-30" transform="translate(45.690477 0) scale(0.996264)"/>
       <use xlink:href="#CMR17-30" transform="translate(91.380954 0) scale(0.996264)"/>
       <use xlink:href="#CMR17-30" transform="translate(137.071431 0) scale(0.996264)"/>
       <use xlink:href="#CMR17-30" transform="translate(182.761908 0) scale(0.996264)"/>
      </g>
     </g>
    </g>
   </g>
   <g id="patch_3">
    <path d="M 58.644638 146.22492 
L 58.644638 42.325693 
" style="fill: none; stroke: #000000; stroke-width: 0.8; stroke-linejoin: miter; stroke-linecap: square"/>
   </g>
   <g id="patch_4">
    <path d="M 135.734584 146.22492 
L 135.734584 42.325693 
" style="fill: none; stroke: #000000; stroke-width: 0.8; stroke-linejoin: miter; stroke-linecap: square"/>
   </g>
   <g id="patch_5">
    <path d="M 58.644638 146.22492 
L 135.734584 146.22492 
" style="fill: none; stroke: #000000; stroke-width: 0.8; stroke-linejoin: miter; stroke-linecap: square"/>
   </g>
   <g id="patch_6">
    <path d="M 58.644638 42.325693 
L 135.734584 42.325693 
" style="fill: none; stroke: #000000; stroke-width: 0.8; stroke-linejoin: miter; stroke-linecap: square"/>
   </g>
   <g id="text_8">
    <!-- asap7 -->
    <g transform="translate(82.849785 36.325693) scale(0.12 -0.12)">
     <defs>
      <path id="CMR17-61" d="M 2304 1653 
C 2304 2072 2304 2294 2035 2543 
C 1798 2752 1523 2816 1306 2816 
C 800 2816 435 2407 435 1971 
C 435 1728 627 1728 666 1728 
C 749 1728 896 1778 896 1954 
C 896 2112 774 2181 666 2181 
C 640 2181 608 2174 589 2168 
C 723 2592 1069 2714 1293 2714 
C 1613 2714 1965 2429 1965 1885 
L 1965 1600 
C 1587 1600 1133 1549 774 1357 
C 371 1133 256 813 256 570 
C 256 77 832 -64 1171 -64 
C 1523 -64 1850 139 1990 511 
C 2003 233 2182 -18 2464 -18 
C 2598 -18 2938 70 2938 567 
L 2938 920 
L 2822 920 
L 2822 562 
C 2822 178 2650 128 2566 128 
C 2304 128 2304 458 2304 738 
L 2304 1653 
z
M 1965 870 
C 1965 317 1568 38 1216 38 
C 896 38 646 275 646 570 
C 646 761 730 1100 1101 1305 
C 1408 1478 1760 1504 1965 1504 
L 1965 870 
z
" transform="scale(0.015625)"/>
      <path id="CMR17-73" d="M 1978 2697 
C 1978 2813 1971 2819 1933 2819 
C 1907 2819 1901 2813 1824 2717 
C 1805 2691 1747 2626 1728 2601 
C 1523 2819 1235 2819 1126 2819 
C 416 2819 160 2447 160 2076 
C 160 1498 813 1365 998 1325 
C 1402 1243 1542 1217 1677 1101 
C 1760 1025 1901 884 1901 654 
C 1901 384 1747 38 1158 38 
C 602 38 403 460 288 1021 
C 269 1110 269 1117 218 1117 
C 166 1117 160 1110 160 983 
L 160 63 
C 160 -51 166 -58 205 -58 
C 237 -58 243 -51 275 0 
C 314 57 410 211 448 276 
C 576 103 800 -64 1158 -64 
C 1792 -64 2131 283 2131 784 
C 2131 1112 1958 1285 1875 1362 
C 1683 1561 1459 1606 1190 1657 
C 838 1735 390 1825 390 2217 
C 390 2383 480 2737 1126 2737 
C 1811 2737 1850 2094 1862 1888 
C 1869 1856 1901 1849 1920 1849 
C 1978 1849 1978 1869 1978 1978 
L 1978 2697 
z
" transform="scale(0.015625)"/>
      <path id="CMR17-70" d="M 1408 -1063 
C 998 -1063 973 -1037 973 -789 
L 973 402 
C 1158 134 1427 -38 1766 -38 
C 2406 -38 3053 523 3053 1388 
C 3053 2191 2496 2802 1837 2802 
C 1453 2802 1139 2592 960 2338 
L 960 2802 
L 198 2732 
L 198 2567 
C 576 2567 634 2528 634 2223 
L 634 -789 
C 634 -1031 608 -1063 198 -1063 
L 198 -1228 
C 352 -1216 634 -1216 800 -1216 
C 966 -1216 1254 -1216 1408 -1228 
L 1408 -1063 
z
M 973 2012 
C 973 2102 973 2235 1222 2471 
C 1254 2497 1472 2688 1792 2688 
C 2259 2688 2643 2108 2643 1382 
C 2643 656 2234 64 1728 64 
C 1498 64 1248 172 1056 472 
C 973 612 973 650 973 752 
L 973 2012 
z
" transform="scale(0.015625)"/>
      <path id="CMR17-37" d="M 2886 3941 
L 2886 4081 
L 1382 4081 
C 634 4081 621 4165 595 4288 
L 480 4288 
L 294 3094 
L 410 3094 
C 429 3215 474 3540 550 3661 
C 589 3712 1062 3712 1171 3712 
L 2579 3712 
L 1869 2661 
C 1395 1954 1069 999 1069 165 
C 1069 89 1069 -128 1299 -128 
C 1530 -128 1530 89 1530 171 
L 1530 465 
C 1530 1508 1709 2196 2003 2636 
L 2886 3941 
z
" transform="scale(0.015625)"/>
     </defs>
     <use xlink:href="#CMR17-61" transform="scale(0.996264)"/>
     <use xlink:href="#CMR17-73" transform="translate(45.690477 0) scale(0.996264)"/>
     <use xlink:href="#CMR17-61" transform="translate(81.491815 0) scale(0.996264)"/>
     <use xlink:href="#CMR17-70" transform="translate(127.182292 0) scale(0.996264)"/>
     <use xlink:href="#CMR17-37" transform="translate(178.077662 0) scale(0.996264)"/>
    </g>
   </g>
  </g>
  <g id="axes_2">
   <g id="patch_7">
    <path d="M 180.130038 146.22492 
L 257.219984 146.22492 
L 257.219984 42.325693 
L 180.130038 42.325693 
z
" style="fill: #ffffff"/>
   </g>
   <g id="PathCollection_8">
    <g clip-path="url(#pb2743de5f3)">
     <use xlink:href="#m7e8edc889f" x="217.579058" y="93.196847" style="fill: #1f77b4; stroke: #1f77b4"/>
    </g>
   </g>
   <g id="PathCollection_9">
    <g clip-path="url(#pb2743de5f3)">
     <use xlink:href="#m2259f71dbe" x="253.715896" y="47.048385" style="fill: #aec7e8; stroke: #aec7e8"/>
    </g>
   </g>
   <g id="PathCollection_10">
    <g clip-path="url(#pb2743de5f3)">
     <use xlink:href="#me59e015414" x="183.634126" y="141.502228" style="fill: #ff7f0e; stroke: #ff7f0e"/>
    </g>
   </g>
   <g id="PathCollection_11">
    <g clip-path="url(#pb2743de5f3)">
     <use xlink:href="#m56bbbe85bc" x="202.768878" y="107.87827" style="fill: #2ca02c; stroke: #2ca02c"/>
    </g>
   </g>
   <g id="PathCollection_12">
    <g clip-path="url(#pb2743de5f3)">
     <use xlink:href="#m2914ab49ba" x="231.79683" y="70.544414" style="fill: #98df8a; stroke: #98df8a"/>
    </g>
   </g>
   <g id="PathCollection_13">
    <g clip-path="url(#pb2743de5f3)">
     <use xlink:href="#ma52ec8b127" x="198.858991" y="115.796557" style="fill: #d62728; stroke: #d62728"/>
    </g>
   </g>
   <g id="PathCollection_14">
    <g clip-path="url(#pb2743de5f3)">
     <use xlink:href="#m09fdef36f8" x="231.204423" y="71.86253" style="fill: #ff9896; stroke: #ff9896"/>
    </g>
   </g>
   <g id="matplotlib.axis_3">
    <g id="xtick_3">
     <g id="line2d_13">
      <path d="M 200.991657 146.22492 
L 200.991657 42.325693 
" clip-path="url(#pb2743de5f3)" style="fill: none; stroke-dasharray: 1.11,0.48; stroke-dashoffset: 0; stroke: #a5a5a5; stroke-width: 0.3"/>
     </g>
     <g id="line2d_14">
      <g>
       <use xlink:href="#maa0907d438" x="200.991657" y="146.22492" style="stroke: #000000; stroke-width: 0.8"/>
      </g>
     </g>
     <g id="text_9">
      <!-- $\mathdefault{1.0}$ -->
      <g transform="translate(195.581312 158.759722) scale(0.08 -0.08)">
       <use xlink:href="#CMR17-31" transform="scale(0.996264)"/>
       <use xlink:href="#CMMI12-3a" transform="translate(45.690477 0) scale(0.996264)"/>
       <use xlink:href="#CMR17-30" transform="translate(72.787654 0) scale(0.996264)"/>
      </g>
     </g>
    </g>
    <g id="xtick_4">
     <g id="line2d_15">
      <path d="M 230.612016 146.22492 
L 230.612016 42.325693 
" clip-path="url(#pb2743de5f3)" style="fill: none; stroke-dasharray: 1.11,0.48; stroke-dashoffset: 0; stroke: #a5a5a5; stroke-width: 0.3"/>
     </g>
     <g id="line2d_16">
      <g>
       <use xlink:href="#maa0907d438" x="230.612016" y="146.22492" style="stroke: #000000; stroke-width: 0.8"/>
      </g>
     </g>
     <g id="text_10">
      <!-- $\mathdefault{1.5}$ -->
      <g transform="translate(225.201671 158.759722) scale(0.08 -0.08)">
       <use xlink:href="#CMR17-31" transform="scale(0.996264)"/>
       <use xlink:href="#CMMI12-3a" transform="translate(45.690477 0) scale(0.996264)"/>
       <use xlink:href="#CMR17-35" transform="translate(72.787654 0) scale(0.996264)"/>
      </g>
     </g>
    </g>
    <g id="text_11">
     <!-- $\times\mathdefault{10^{−12}}\mathdefault{}$ -->
     <g transform="translate(229.103148 169.254976) scale(0.08 -0.08)">
      <use xlink:href="#CMSY10-2" transform="scale(0.996264)"/>
      <use xlink:href="#CMR17-31" transform="translate(77.487468 0) scale(0.996264)"/>
      <use xlink:href="#CMR17-30" transform="translate(123.177945 0) scale(0.996264)"/>
      <use xlink:href="#CMSY10-0" transform="translate(168.868422 36.153639) scale(0.697382)"/>
      <use xlink:href="#CMR17-31" transform="translate(223.109415 36.153639) scale(0.697382)"/>
      <use xlink:href="#CMR17-32" transform="translate(255.092597 36.153639) scale(0.697382)"/>
     </g>
    </g>
   </g>
   <g id="matplotlib.axis_4">
    <g id="ytick_5">
     <g id="line2d_17">
      <path d="M 180.130038 129.768593 
L 257.219984 129.768593 
" clip-path="url(#pb2743de5f3)" style="fill: none; stroke-dasharray: 1.11,0.48; stroke-dashoffset: 0; stroke: #a5a5a5; stroke-width: 0.3"/>
     </g>
     <g id="line2d_18">
      <g>
       <use xlink:href="#m613f803c68" x="180.130038" y="129.768593" style="stroke: #000000; stroke-width: 0.8"/>
      </g>
     </g>
     <g id="text_12">
      <!-- $\mathdefault{15000}$ -->
      <g transform="translate(151.959124 132.535994) scale(0.08 -0.08)">
       <use xlink:href="#CMR17-31" transform="scale(0.996264)"/>
       <use xlink:href="#CMR17-35" transform="translate(45.690477 0) scale(0.996264)"/>
       <use xlink:href="#CMR17-30" transform="translate(91.380954 0) scale(0.996264)"/>
       <use xlink:href="#CMR17-30" transform="translate(137.071431 0) scale(0.996264)"/>
       <use xlink:href="#CMR17-30" transform="translate(182.761908 0) scale(0.996264)"/>
      </g>
     </g>
    </g>
    <g id="ytick_6">
     <g id="line2d_19">
      <path d="M 180.130038 105.802836 
L 257.219984 105.802836 
" clip-path="url(#pb2743de5f3)" style="fill: none; stroke-dasharray: 1.11,0.48; stroke-dashoffset: 0; stroke: #a5a5a5; stroke-width: 0.3"/>
     </g>
     <g id="line2d_20">
      <g>
       <use xlink:href="#m613f803c68" x="180.130038" y="105.802836" style="stroke: #000000; stroke-width: 0.8"/>
      </g>
     </g>
     <g id="text_13">
      <!-- $\mathdefault{20000}$ -->
      <g transform="translate(151.959124 108.570237) scale(0.08 -0.08)">
       <use xlink:href="#CMR17-32" transform="scale(0.996264)"/>
       <use xlink:href="#CMR17-30" transform="translate(45.690477 0) scale(0.996264)"/>
       <use xlink:href="#CMR17-30" transform="translate(91.380954 0) scale(0.996264)"/>
       <use xlink:href="#CMR17-30" transform="translate(137.071431 0) scale(0.996264)"/>
       <use xlink:href="#CMR17-30" transform="translate(182.761908 0) scale(0.996264)"/>
      </g>
     </g>
    </g>
    <g id="ytick_7">
     <g id="line2d_21">
      <path d="M 180.130038 81.837079 
L 257.219984 81.837079 
" clip-path="url(#pb2743de5f3)" style="fill: none; stroke-dasharray: 1.11,0.48; stroke-dashoffset: 0; stroke: #a5a5a5; stroke-width: 0.3"/>
     </g>
     <g id="line2d_22">
      <g>
       <use xlink:href="#m613f803c68" x="180.130038" y="81.837079" style="stroke: #000000; stroke-width: 0.8"/>
      </g>
     </g>
     <g id="text_14">
      <!-- $\mathdefault{25000}$ -->
      <g transform="translate(151.959124 84.604479) scale(0.08 -0.08)">
       <use xlink:href="#CMR17-32" transform="scale(0.996264)"/>
       <use xlink:href="#CMR17-35" transform="translate(45.690477 0) scale(0.996264)"/>
       <use xlink:href="#CMR17-30" transform="translate(91.380954 0) scale(0.996264)"/>
       <use xlink:href="#CMR17-30" transform="translate(137.071431 0) scale(0.996264)"/>
       <use xlink:href="#CMR17-30" transform="translate(182.761908 0) scale(0.996264)"/>
      </g>
     </g>
    </g>
    <g id="ytick_8">
     <g id="line2d_23">
      <path d="M 180.130038 57.871321 
L 257.219984 57.871321 
" clip-path="url(#pb2743de5f3)" style="fill: none; stroke-dasharray: 1.11,0.48; stroke-dashoffset: 0; stroke: #a5a5a5; stroke-width: 0.3"/>
     </g>
     <g id="line2d_24">
      <g>
       <use xlink:href="#m613f803c68" x="180.130038" y="57.871321" style="stroke: #000000; stroke-width: 0.8"/>
      </g>
     </g>
     <g id="text_15">
      <!-- $\mathdefault{30000}$ -->
      <g transform="translate(151.959124 60.638722) scale(0.08 -0.08)">
       <use xlink:href="#CMR17-33" transform="scale(0.996264)"/>
       <use xlink:href="#CMR17-30" transform="translate(45.690477 0) scale(0.996264)"/>
       <use xlink:href="#CMR17-30" transform="translate(91.380954 0) scale(0.996264)"/>
       <use xlink:href="#CMR17-30" transform="translate(137.071431 0) scale(0.996264)"/>
       <use xlink:href="#CMR17-30" transform="translate(182.761908 0) scale(0.996264)"/>
      </g>
     </g>
    </g>
   </g>
   <g id="patch_8">
    <path d="M 180.130038 146.22492 
L 180.130038 42.325693 
" style="fill: none; stroke: #000000; stroke-width: 0.8; stroke-linejoin: miter; stroke-linecap: square"/>
   </g>
   <g id="patch_9">
    <path d="M 257.219984 146.22492 
L 257.219984 42.325693 
" style="fill: none; stroke: #000000; stroke-width: 0.8; stroke-linejoin: miter; stroke-linecap: square"/>
   </g>
   <g id="patch_10">
    <path d="M 180.130038 146.22492 
L 257.219984 146.22492 
" style="fill: none; stroke: #000000; stroke-width: 0.8; stroke-linejoin: miter; stroke-linecap: square"/>
   </g>
   <g id="patch_11">
    <path d="M 180.130038 42.325693 
L 257.219984 42.325693 
" style="fill: none; stroke: #000000; stroke-width: 0.8; stroke-linejoin: miter; stroke-linecap: square"/>
   </g>
   <g id="text_16">
    <!-- nangate45 -->
    <g transform="translate(192.661721 36.325693) scale(0.12 -0.12)">
     <defs>
      <path id="CMR17-6e" d="M 2656 1933 
C 2656 2259 2592 2790 1837 2790 
C 1331 2790 1069 2400 973 2144 
L 966 2144 
L 966 2790 
L 211 2720 
L 211 2554 
C 589 2554 646 2515 646 2208 
L 646 428 
C 646 184 621 153 211 153 
L 211 -13 
C 365 0 646 0 813 0 
C 979 0 1267 0 1421 -13 
L 1421 153 
C 1011 153 986 178 986 428 
L 986 1658 
C 986 2247 1344 2688 1792 2688 
C 2266 2688 2317 2266 2317 1958 
L 2317 428 
C 2317 184 2291 153 1882 153 
L 1882 -13 
C 2035 0 2317 0 2483 0 
C 2650 0 2938 0 3091 -13 
L 3091 153 
C 2682 153 2656 178 2656 428 
L 2656 1933 
z
" transform="scale(0.015625)"/>
      <path id="CMR17-67" d="M 710 1164 
C 832 1068 1043 960 1299 960 
C 1805 960 2240 1357 2240 1888 
C 2240 2054 2189 2310 1997 2509 
C 2176 2692 2438 2752 2586 2752 
C 2611 2752 2650 2752 2682 2734 
C 2656 2728 2598 2703 2598 2605 
C 2598 2527 2656 2471 2739 2471 
C 2835 2471 2886 2533 2886 2614 
C 2886 2731 2790 2854 2586 2854 
C 2330 2854 2106 2738 1926 2580 
C 1734 2753 1504 2816 1299 2816 
C 794 2816 358 2419 358 1888 
C 358 1522 570 1292 634 1228 
C 442 1004 442 743 442 711 
C 442 545 506 302 723 168 
C 390 85 128 -169 128 -486 
C 128 -943 736 -1280 1466 -1280 
C 2170 -1280 2803 -956 2803 -479 
C 2803 384 1856 384 1363 384 
C 1216 384 954 384 922 391 
C 723 423 589 602 589 826 
C 589 883 589 1024 710 1164 
z
M 1299 1068 
C 736 1068 736 1760 736 1889 
C 736 2016 736 2708 1299 2708 
C 1862 2708 1862 2016 1862 1889 
C 1862 1760 1862 1068 1299 1068 
z
M 1466 -1171 
C 826 -1171 384 -835 384 -486 
C 384 -289 493 -105 634 -4 
C 794 104 858 104 1293 104 
C 1818 104 2547 104 2547 -486 
C 2547 -835 2106 -1171 1466 -1171 
z
" transform="scale(0.015625)"/>
      <path id="CMR17-74" d="M 966 2560 
L 1862 2560 
L 1862 2725 
L 966 2725 
L 966 3904 
L 851 3904 
C 838 3245 614 2668 70 2668 
L 70 2560 
L 627 2560 
L 627 771 
C 627 650 627 -64 1370 -64 
C 1747 -64 1965 306 1965 777 
L 1965 1140 
L 1850 1140 
L 1850 783 
C 1850 344 1677 51 1408 51 
C 1222 51 966 178 966 758 
L 966 2560 
z
" transform="scale(0.015625)"/>
      <path id="CMR17-65" d="M 2438 1472 
C 2464 1498 2464 1511 2464 1576 
C 2464 2238 2118 2816 1389 2816 
C 710 2816 173 2169 173 1383 
C 173 551 781 -64 1459 -64 
C 2176 -64 2458 607 2458 740 
C 2458 784 2419 784 2406 784 
C 2362 784 2355 771 2330 696 
C 2189 265 1837 51 1504 51 
C 1229 51 954 203 781 480 
C 582 803 582 1176 582 1472 
L 2438 1472 
z
M 589 1568 
C 634 2505 1126 2714 1382 2714 
C 1818 2714 2112 2297 2118 1568 
L 589 1568 
z
" transform="scale(0.015625)"/>
     </defs>
     <use xlink:href="#CMR17-6e" transform="scale(0.996264)"/>
     <use xlink:href="#CMR17-61" transform="translate(50.89537 0) scale(0.996264)"/>
     <use xlink:href="#CMR17-6e" transform="translate(96.585847 0) scale(0.996264)"/>
     <use xlink:href="#CMR17-67" transform="translate(147.481217 0) scale(0.996264)"/>
     <use xlink:href="#CMR17-61" transform="translate(193.171694 0) scale(0.996264)"/>
     <use xlink:href="#CMR17-74" transform="translate(238.862171 0) scale(0.996264)"/>
     <use xlink:href="#CMR17-65" transform="translate(274.142939 0) scale(0.996264)"/>
     <use xlink:href="#CMR17-34" transform="translate(314.628599 0) scale(0.996264)"/>
     <use xlink:href="#CMR17-35" transform="translate(360.319076 0) scale(0.996264)"/>
    </g>
   </g>
  </g>
  <g id="axes_3">
   <g id="patch_12">
    <path d="M 301.615438 146.22492 
L 378.705384 146.22492 
L 378.705384 42.325693 
L 301.615438 42.325693 
z
" style="fill: #ffffff"/>
   </g>
   <g id="PathCollection_15">
    <g clip-path="url(#pca653cde07)">
     <use xlink:href="#m7e8edc889f" x="335.045748" y="94.451012" style="fill: #1f77b4; stroke: #1f77b4"/>
    </g>
   </g>
   <g id="PathCollection_16">
    <g clip-path="url(#pca653cde07)">
     <use xlink:href="#m2259f71dbe" x="375.201296" y="47.048385" style="fill: #aec7e8; stroke: #aec7e8"/>
    </g>
   </g>
   <g id="PathCollection_17">
    <g clip-path="url(#pca653cde07)">
     <use xlink:href="#me59e015414" x="305.119527" y="141.502228" style="fill: #ff7f0e; stroke: #ff7f0e"/>
    </g>
   </g>
   <g id="PathCollection_18">
    <g clip-path="url(#pca653cde07)">
     <use xlink:href="#m56bbbe85bc" x="311.322416" y="113.396215" style="fill: #2ca02c; stroke: #2ca02c"/>
    </g>
   </g>
   <g id="PathCollection_19">
    <g clip-path="url(#pca653cde07)">
     <use xlink:href="#m2914ab49ba" x="340.378056" y="73.221636" style="fill: #98df8a; stroke: #98df8a"/>
    </g>
   </g>
   <g id="PathCollection_20">
    <g clip-path="url(#pca653cde07)">
     <use xlink:href="#ma52ec8b127" x="310.016545" y="117.406438" style="fill: #d62728; stroke: #d62728"/>
    </g>
   </g>
   <g id="PathCollection_21">
    <g clip-path="url(#pca653cde07)">
     <use xlink:href="#m09fdef36f8" x="334.28399" y="71.850443" style="fill: #ff9896; stroke: #ff9896"/>
    </g>
   </g>
   <g id="matplotlib.axis_5">
    <g id="xtick_5">
     <g id="line2d_25">
      <path d="M 322.422324 146.22492 
L 322.422324 42.325693 
" clip-path="url(#pca653cde07)" style="fill: none; stroke-dasharray: 1.11,0.48; stroke-dashoffset: 0; stroke: #a5a5a5; stroke-width: 0.3"/>
     </g>
     <g id="line2d_26">
      <g>
       <use xlink:href="#maa0907d438" x="322.422324" y="146.22492" style="stroke: #000000; stroke-width: 0.8"/>
      </g>
     </g>
     <g id="text_17">
      <!-- $\mathdefault{0.50}$ -->
      <g transform="translate(314.894887 158.759722) scale(0.08 -0.08)">
       <use xlink:href="#CMR17-30" transform="scale(0.996264)"/>
       <use xlink:href="#CMMI12-3a" transform="translate(45.690477 0) scale(0.996264)"/>
       <use xlink:href="#CMR17-35" transform="translate(72.787654 0) scale(0.996264)"/>
       <use xlink:href="#CMR17-30" transform="translate(118.478131 0) scale(0.996264)"/>
      </g>
     </g>
    </g>
    <g id="xtick_6">
     <g id="line2d_27">
      <path d="M 349.627979 146.22492 
L 349.627979 42.325693 
" clip-path="url(#pca653cde07)" style="fill: none; stroke-dasharray: 1.11,0.48; stroke-dashoffset: 0; stroke: #a5a5a5; stroke-width: 0.3"/>
     </g>
     <g id="line2d_28">
      <g>
       <use xlink:href="#maa0907d438" x="349.627979" y="146.22492" style="stroke: #000000; stroke-width: 0.8"/>
      </g>
     </g>
     <g id="text_18">
      <!-- $\mathdefault{0.75}$ -->
      <g transform="translate(342.100543 158.759722) scale(0.08 -0.08)">
       <use xlink:href="#CMR17-30" transform="scale(0.996264)"/>
       <use xlink:href="#CMMI12-3a" transform="translate(45.690477 0) scale(0.996264)"/>
       <use xlink:href="#CMR17-37" transform="translate(72.787654 0) scale(0.996264)"/>
       <use xlink:href="#CMR17-35" transform="translate(118.478131 0) scale(0.996264)"/>
      </g>
     </g>
    </g>
    <g id="xtick_7">
     <g id="line2d_29">
      <path d="M 376.833635 146.22492 
L 376.833635 42.325693 
" clip-path="url(#pca653cde07)" style="fill: none; stroke-dasharray: 1.11,0.48; stroke-dashoffset: 0; stroke: #a5a5a5; stroke-width: 0.3"/>
     </g>
     <g id="line2d_30">
      <g>
       <use xlink:href="#maa0907d438" x="376.833635" y="146.22492" style="stroke: #000000; stroke-width: 0.8"/>
      </g>
     </g>
     <g id="text_19">
      <!-- $\mathdefault{1.00}$ -->
      <g transform="translate(369.306199 158.759722) scale(0.08 -0.08)">
       <use xlink:href="#CMR17-31" transform="scale(0.996264)"/>
       <use xlink:href="#CMMI12-3a" transform="translate(45.690477 0) scale(0.996264)"/>
       <use xlink:href="#CMR17-30" transform="translate(72.787654 0) scale(0.996264)"/>
       <use xlink:href="#CMR17-30" transform="translate(118.478131 0) scale(0.996264)"/>
      </g>
     </g>
    </g>
    <g id="text_20">
     <!-- $\times\mathdefault{10^{−11}}\mathdefault{}$ -->
     <g transform="translate(350.588548 169.254976) scale(0.08 -0.08)">
      <use xlink:href="#CMSY10-2" transform="scale(0.996264)"/>
      <use xlink:href="#CMR17-31" transform="translate(77.487468 0) scale(0.996264)"/>
      <use xlink:href="#CMR17-30" transform="translate(123.177945 0) scale(0.996264)"/>
      <use xlink:href="#CMSY10-0" transform="translate(168.868422 36.153639) scale(0.697382)"/>
      <use xlink:href="#CMR17-31" transform="translate(223.109415 36.153639) scale(0.697382)"/>
      <use xlink:href="#CMR17-31" transform="translate(255.092597 36.153639) scale(0.697382)"/>
     </g>
    </g>
   </g>
   <g id="matplotlib.axis_6">
    <g id="ytick_9">
     <g id="line2d_31">
      <path d="M 301.615438 130.574026 
L 378.705384 130.574026 
" clip-path="url(#pca653cde07)" style="fill: none; stroke-dasharray: 1.11,0.48; stroke-dashoffset: 0; stroke: #a5a5a5; stroke-width: 0.3"/>
     </g>
     <g id="line2d_32">
      <g>
       <use xlink:href="#m613f803c68" x="301.615438" y="130.574026" style="stroke: #000000; stroke-width: 0.8"/>
      </g>
     </g>
     <g id="text_21">
      <!-- $\mathdefault{20000}$ -->
      <g transform="translate(273.444524 133.341427) scale(0.08 -0.08)">
       <use xlink:href="#CMR17-32" transform="scale(0.996264)"/>
       <use xlink:href="#CMR17-30" transform="translate(45.690477 0) scale(0.996264)"/>
       <use xlink:href="#CMR17-30" transform="translate(91.380954 0) scale(0.996264)"/>
       <use xlink:href="#CMR17-30" transform="translate(137.071431 0) scale(0.996264)"/>
       <use xlink:href="#CMR17-30" transform="translate(182.761908 0) scale(0.996264)"/>
      </g>
     </g>
    </g>
    <g id="ytick_10">
     <g id="line2d_33">
      <path d="M 301.615438 96.121938 
L 378.705384 96.121938 
" clip-path="url(#pca653cde07)" style="fill: none; stroke-dasharray: 1.11,0.48; stroke-dashoffset: 0; stroke: #a5a5a5; stroke-width: 0.3"/>
     </g>
     <g id="line2d_34">
      <g>
       <use xlink:href="#m613f803c68" x="301.615438" y="96.121938" style="stroke: #000000; stroke-width: 0.8"/>
      </g>
     </g>
     <g id="text_22">
      <!-- $\mathdefault{30000}$ -->
      <g transform="translate(273.444524 98.889339) scale(0.08 -0.08)">
       <use xlink:href="#CMR17-33" transform="scale(0.996264)"/>
       <use xlink:href="#CMR17-30" transform="translate(45.690477 0) scale(0.996264)"/>
       <use xlink:href="#CMR17-30" transform="translate(91.380954 0) scale(0.996264)"/>
       <use xlink:href="#CMR17-30" transform="translate(137.071431 0) scale(0.996264)"/>
       <use xlink:href="#CMR17-30" transform="translate(182.761908 0) scale(0.996264)"/>
      </g>
     </g>
    </g>
    <g id="ytick_11">
     <g id="line2d_35">
      <path d="M 301.615438 61.669851 
L 378.705384 61.669851 
" clip-path="url(#pca653cde07)" style="fill: none; stroke-dasharray: 1.11,0.48; stroke-dashoffset: 0; stroke: #a5a5a5; stroke-width: 0.3"/>
     </g>
     <g id="line2d_36">
      <g>
       <use xlink:href="#m613f803c68" x="301.615438" y="61.669851" style="stroke: #000000; stroke-width: 0.8"/>
      </g>
     </g>
     <g id="text_23">
      <!-- $\mathdefault{40000}$ -->
      <g transform="translate(273.444524 64.437252) scale(0.08 -0.08)">
       <use xlink:href="#CMR17-34" transform="scale(0.996264)"/>
       <use xlink:href="#CMR17-30" transform="translate(45.690477 0) scale(0.996264)"/>
       <use xlink:href="#CMR17-30" transform="translate(91.380954 0) scale(0.996264)"/>
       <use xlink:href="#CMR17-30" transform="translate(137.071431 0) scale(0.996264)"/>
       <use xlink:href="#CMR17-30" transform="translate(182.761908 0) scale(0.996264)"/>
      </g>
     </g>
    </g>
   </g>
   <g id="patch_13">
    <path d="M 301.615438 146.22492 
L 301.615438 42.325693 
" style="fill: none; stroke: #000000; stroke-width: 0.8; stroke-linejoin: miter; stroke-linecap: square"/>
   </g>
   <g id="patch_14">
    <path d="M 378.705384 146.22492 
L 378.705384 42.325693 
" style="fill: none; stroke: #000000; stroke-width: 0.8; stroke-linejoin: miter; stroke-linecap: square"/>
   </g>
   <g id="patch_15">
    <path d="M 301.615438 146.22492 
L 378.705384 146.22492 
" style="fill: none; stroke: #000000; stroke-width: 0.8; stroke-linejoin: miter; stroke-linecap: square"/>
   </g>
   <g id="patch_16">
    <path d="M 301.615438 42.325693 
L 378.705384 42.325693 
" style="fill: none; stroke: #000000; stroke-width: 0.8; stroke-linejoin: miter; stroke-linecap: square"/>
   </g>
   <g id="text_24">
    <!-- sky130hd -->
    <g transform="translate(316.390768 36.325693) scale(0.12 -0.12)">
     <defs>
      <path id="CMR17-6b" d="M 1670 1673 
C 1664 1686 1632 1724 1632 1743 
C 1632 1756 2086 2171 2144 2222 
C 2509 2528 2739 2560 2906 2560 
L 2906 2733 
C 2867 2733 2854 2733 2848 2720 
L 2534 2720 
C 2355 2720 2080 2720 1907 2733 
L 1907 2566 
C 1997 2559 2061 2508 2061 2419 
C 2061 2291 1933 2170 1926 2170 
L 960 1289 
L 960 4396 
L 198 4326 
L 198 4160 
C 576 4160 634 4122 634 3817 
L 634 426 
C 634 184 608 153 198 153 
L 198 -13 
C 352 0 634 0 794 0 
C 954 0 1235 0 1389 -13 
L 1389 153 
C 979 153 954 178 954 428 
L 954 1130 
L 1395 1532 
L 2042 574 
C 2118 459 2182 369 2182 286 
C 2182 172 2067 153 1990 153 
L 1990 -13 
C 2144 0 2419 0 2579 0 
C 2694 0 2931 0 3040 0 
L 3040 153 
C 2739 153 2669 210 2477 491 
L 1670 1673 
z
" transform="scale(0.015625)"/>
      <path id="CMR17-79" d="M 2496 2197 
C 2656 2586 2944 2586 3034 2586 
L 3034 2752 
C 2912 2752 2752 2752 2630 2752 
C 2496 2752 2285 2752 2157 2758 
L 2157 2592 
C 2400 2573 2406 2394 2406 2343 
C 2406 2280 2394 2248 2362 2171 
L 1664 449 
L 902 2306 
C 870 2382 870 2426 870 2433 
C 870 2573 1018 2586 1171 2586 
L 1171 2758 
C 1018 2752 742 2752 582 2752 
C 410 2752 205 2752 64 2758 
L 64 2586 
C 410 2586 448 2554 531 2350 
L 1485 15 
C 1197 -738 1030 -1178 627 -1178 
C 557 -1178 397 -1159 282 -1044 
C 429 -1031 493 -942 493 -833 
C 493 -725 416 -629 288 -629 
C 147 -629 77 -725 77 -840 
C 77 -1095 339 -1280 627 -1280 
C 998 -1280 1229 -922 1357 -604 
L 2496 2197 
z
" transform="scale(0.015625)"/>
      <path id="CMR17-68" d="M 2656 1933 
C 2656 2259 2592 2790 1837 2790 
C 1312 2790 1056 2368 979 2157 
L 973 2157 
L 973 4396 
L 211 4326 
L 211 4160 
C 589 4160 646 4122 646 3817 
L 646 426 
C 646 184 621 153 211 153 
L 211 -13 
C 365 0 646 0 813 0 
C 979 0 1267 0 1421 -13 
L 1421 153 
C 1011 153 986 178 986 428 
L 986 1658 
C 986 2247 1344 2688 1792 2688 
C 2266 2688 2317 2266 2317 1958 
L 2317 428 
C 2317 184 2291 153 1882 153 
L 1882 -13 
C 2035 0 2317 0 2483 0 
C 2650 0 2938 0 3091 -13 
L 3091 153 
C 2682 153 2656 178 2656 428 
L 2656 1933 
z
" transform="scale(0.015625)"/>
      <path id="CMR17-64" d="M 1869 4326 
L 1869 4160 
C 2246 4160 2304 4122 2304 3820 
L 2304 2345 
C 2278 2377 2016 2790 1498 2790 
C 845 2790 211 2208 211 1364 
C 211 525 806 -64 1434 -64 
C 1978 -64 2259 337 2291 380 
L 2291 -63 
L 3066 -63 
L 3066 128 
C 2688 128 2630 166 2630 473 
L 2630 4396 
L 1869 4326 
z
M 2291 755 
C 2291 563 2176 390 2029 262 
C 1811 70 1594 38 1472 38 
C 1286 38 621 134 621 1356 
C 621 2612 1363 2688 1530 2688 
C 1824 2688 2061 2522 2208 2291 
C 2291 2157 2291 2138 2291 2023 
L 2291 755 
z
" transform="scale(0.015625)"/>
     </defs>
     <use xlink:href="#CMR17-73" transform="scale(0.996264)"/>
     <use xlink:href="#CMR17-6b" transform="translate(35.801338 0) scale(0.996264)"/>
     <use xlink:href="#CMR17-79" transform="translate(84.094253 0) scale(0.996264)"/>
     <use xlink:href="#CMR17-31" transform="translate(132.387169 0) scale(0.996264)"/>
     <use xlink:href="#CMR17-33" transform="translate(178.077646 0) scale(0.996264)"/>
     <use xlink:href="#CMR17-30" transform="translate(223.768124 0) scale(0.996264)"/>
     <use xlink:href="#CMR17-68" transform="translate(269.458601 0) scale(0.996264)"/>
     <use xlink:href="#CMR17-64" transform="translate(320.35397 0) scale(0.996264)"/>
    </g>
   </g>
  </g>
  <g id="axes_4">
   <g id="patch_17">
    <path d="M 423.100838 146.22492 
L 500.190785 146.22492 
L 500.190785 42.325693 
L 423.100838 42.325693 
z
" style="fill: #ffffff"/>
   </g>
   <g id="PathCollection_22">
    <g clip-path="url(#pb084234f11)">
     <use xlink:href="#m7e8edc889f" x="454.233317" y="97.088747" style="fill: #1f77b4; stroke: #1f77b4"/>
    </g>
   </g>
   <g id="PathCollection_23">
    <g clip-path="url(#pb084234f11)">
     <use xlink:href="#m2259f71dbe" x="496.686696" y="47.048385" style="fill: #aec7e8; stroke: #aec7e8"/>
    </g>
   </g>
   <g id="PathCollection_24">
    <g clip-path="url(#pb084234f11)">
     <use xlink:href="#me59e015414" x="426.604927" y="141.502228" style="fill: #ff7f0e; stroke: #ff7f0e"/>
    </g>
   </g>
   <g id="PathCollection_25">
    <g clip-path="url(#pb084234f11)">
     <use xlink:href="#m56bbbe85bc" x="430.311174" y="111.538577" style="fill: #2ca02c; stroke: #2ca02c"/>
    </g>
   </g>
   <g id="PathCollection_26">
    <g clip-path="url(#pb084234f11)">
     <use xlink:href="#m2914ab49ba" x="459.624222" y="72.612839" style="fill: #98df8a; stroke: #98df8a"/>
    </g>
   </g>
   <g id="PathCollection_27">
    <g clip-path="url(#pb084234f11)">
     <use xlink:href="#ma52ec8b127" x="430.648106" y="116.195588" style="fill: #d62728; stroke: #d62728"/>
    </g>
   </g>
   <g id="PathCollection_28">
    <g clip-path="url(#pb084234f11)">
     <use xlink:href="#m09fdef36f8" x="454.233317" y="73.038436" style="fill: #ff9896; stroke: #ff9896"/>
    </g>
   </g>
   <g id="matplotlib.axis_7">
    <g id="xtick_8">
     <g id="line2d_37">
      <path d="M 423.909474 146.22492 
L 423.909474 42.325693 
" clip-path="url(#pb084234f11)" style="fill: none; stroke-dasharray: 1.11,0.48; stroke-dashoffset: 0; stroke: #a5a5a5; stroke-width: 0.3"/>
     </g>
     <g id="line2d_38">
      <g>
       <use xlink:href="#maa0907d438" x="423.909474" y="146.22492" style="stroke: #000000; stroke-width: 0.8"/>
      </g>
     </g>
     <g id="text_25">
      <!-- $\mathdefault{1}$ -->
      <g transform="translate(421.792383 158.759722) scale(0.08 -0.08)">
       <use xlink:href="#CMR17-31" transform="scale(0.996264)"/>
      </g>
     </g>
    </g>
    <g id="xtick_9">
     <g id="line2d_39">
      <path d="M 457.602632 146.22492 
L 457.602632 42.325693 
" clip-path="url(#pb084234f11)" style="fill: none; stroke-dasharray: 1.11,0.48; stroke-dashoffset: 0; stroke: #a5a5a5; stroke-width: 0.3"/>
     </g>
     <g id="line2d_40">
      <g>
       <use xlink:href="#maa0907d438" x="457.602632" y="146.22492" style="stroke: #000000; stroke-width: 0.8"/>
      </g>
     </g>
     <g id="text_26">
      <!-- $\mathdefault{2}$ -->
      <g transform="translate(455.485541 158.759722) scale(0.08 -0.08)">
       <use xlink:href="#CMR17-32" transform="scale(0.996264)"/>
      </g>
     </g>
    </g>
    <g id="xtick_10">
     <g id="line2d_41">
      <path d="M 491.295791 146.22492 
L 491.295791 42.325693 
" clip-path="url(#pb084234f11)" style="fill: none; stroke-dasharray: 1.11,0.48; stroke-dashoffset: 0; stroke: #a5a5a5; stroke-width: 0.3"/>
     </g>
     <g id="line2d_42">
      <g>
       <use xlink:href="#maa0907d438" x="491.295791" y="146.22492" style="stroke: #000000; stroke-width: 0.8"/>
      </g>
     </g>
     <g id="text_27">
      <!-- $\mathdefault{3}$ -->
      <g transform="translate(489.178699 158.759722) scale(0.08 -0.08)">
       <use xlink:href="#CMR17-33" transform="scale(0.996264)"/>
      </g>
     </g>
    </g>
    <g id="text_28">
     <!-- $\times\mathdefault{10^{−6}}\mathdefault{}$ -->
     <g transform="translate(475.72686 169.254976) scale(0.08 -0.08)">
      <defs>
       <path id="CMR17-36" d="M 678 2176 
C 678 3690 1395 4032 1811 4032 
C 1946 4032 2272 4009 2400 3776 
C 2298 3776 2106 3776 2106 3553 
C 2106 3381 2246 3323 2336 3323 
C 2394 3323 2566 3348 2566 3560 
C 2566 3954 2246 4179 1805 4179 
C 1043 4179 243 3390 243 1984 
C 243 253 966 -128 1478 -128 
C 2099 -128 2688 427 2688 1283 
C 2688 2081 2170 2662 1517 2662 
C 1126 2662 838 2407 678 1960 
L 678 2176 
z
M 1478 25 
C 691 25 691 1200 691 1436 
C 691 1896 909 2560 1504 2560 
C 1613 2560 1926 2560 2138 2120 
C 2253 1870 2253 1609 2253 1289 
C 2253 944 2253 690 2118 434 
C 1978 171 1773 25 1478 25 
z
" transform="scale(0.015625)"/>
      </defs>
      <use xlink:href="#CMSY10-2" transform="scale(0.996264)"/>
      <use xlink:href="#CMR17-31" transform="translate(77.487468 0) scale(0.996264)"/>
      <use xlink:href="#CMR17-30" transform="translate(123.177945 0) scale(0.996264)"/>
      <use xlink:href="#CMSY10-0" transform="translate(168.868422 36.153639) scale(0.697382)"/>
      <use xlink:href="#CMR17-36" transform="translate(223.109415 36.153639) scale(0.697382)"/>
     </g>
    </g>
   </g>
   <g id="matplotlib.axis_8">
    <g id="ytick_12">
     <g id="line2d_43">
      <path d="M 423.100838 140.741064 
L 500.190785 140.741064 
" clip-path="url(#pb084234f11)" style="fill: none; stroke-dasharray: 1.11,0.48; stroke-dashoffset: 0; stroke: #a5a5a5; stroke-width: 0.3"/>
     </g>
     <g id="line2d_44">
      <g>
       <use xlink:href="#m613f803c68" x="423.100838" y="140.741064" style="stroke: #000000; stroke-width: 0.8"/>
      </g>
     </g>
     <g id="text_29">
      <!-- $\mathdefault{15000}$ -->
      <g transform="translate(394.929924 143.508465) scale(0.08 -0.08)">
       <use xlink:href="#CMR17-31" transform="scale(0.996264)"/>
       <use xlink:href="#CMR17-35" transform="translate(45.690477 0) scale(0.996264)"/>
       <use xlink:href="#CMR17-30" transform="translate(91.380954 0) scale(0.996264)"/>
       <use xlink:href="#CMR17-30" transform="translate(137.071431 0) scale(0.996264)"/>
       <use xlink:href="#CMR17-30" transform="translate(182.761908 0) scale(0.996264)"/>
      </g>
     </g>
    </g>
    <g id="ytick_13">
     <g id="line2d_45">
      <path d="M 423.100838 120.27968 
L 500.190785 120.27968 
" clip-path="url(#pb084234f11)" style="fill: none; stroke-dasharray: 1.11,0.48; stroke-dashoffset: 0; stroke: #a5a5a5; stroke-width: 0.3"/>
     </g>
     <g id="line2d_46">
      <g>
       <use xlink:href="#m613f803c68" x="423.100838" y="120.27968" style="stroke: #000000; stroke-width: 0.8"/>
      </g>
     </g>
     <g id="text_30">
      <!-- $\mathdefault{20000}$ -->
      <g transform="translate(394.929924 123.047081) scale(0.08 -0.08)">
       <use xlink:href="#CMR17-32" transform="scale(0.996264)"/>
       <use xlink:href="#CMR17-30" transform="translate(45.690477 0) scale(0.996264)"/>
       <use xlink:href="#CMR17-30" transform="translate(91.380954 0) scale(0.996264)"/>
       <use xlink:href="#CMR17-30" transform="translate(137.071431 0) scale(0.996264)"/>
       <use xlink:href="#CMR17-30" transform="translate(182.761908 0) scale(0.996264)"/>
      </g>
     </g>
    </g>
    <g id="ytick_14">
     <g id="line2d_47">
      <path d="M 423.100838 99.818296 
L 500.190785 99.818296 
" clip-path="url(#pb084234f11)" style="fill: none; stroke-dasharray: 1.11,0.48; stroke-dashoffset: 0; stroke: #a5a5a5; stroke-width: 0.3"/>
     </g>
     <g id="line2d_48">
      <g>
       <use xlink:href="#m613f803c68" x="423.100838" y="99.818296" style="stroke: #000000; stroke-width: 0.8"/>
      </g>
     </g>
     <g id="text_31">
      <!-- $\mathdefault{25000}$ -->
      <g transform="translate(394.929924 102.585696) scale(0.08 -0.08)">
       <use xlink:href="#CMR17-32" transform="scale(0.996264)"/>
       <use xlink:href="#CMR17-35" transform="translate(45.690477 0) scale(0.996264)"/>
       <use xlink:href="#CMR17-30" transform="translate(91.380954 0) scale(0.996264)"/>
       <use xlink:href="#CMR17-30" transform="translate(137.071431 0) scale(0.996264)"/>
       <use xlink:href="#CMR17-30" transform="translate(182.761908 0) scale(0.996264)"/>
      </g>
     </g>
    </g>
    <g id="ytick_15">
     <g id="line2d_49">
      <path d="M 423.100838 79.356911 
L 500.190785 79.356911 
" clip-path="url(#pb084234f11)" style="fill: none; stroke-dasharray: 1.11,0.48; stroke-dashoffset: 0; stroke: #a5a5a5; stroke-width: 0.3"/>
     </g>
     <g id="line2d_50">
      <g>
       <use xlink:href="#m613f803c68" x="423.100838" y="79.356911" style="stroke: #000000; stroke-width: 0.8"/>
      </g>
     </g>
     <g id="text_32">
      <!-- $\mathdefault{30000}$ -->
      <g transform="translate(394.929924 82.124312) scale(0.08 -0.08)">
       <use xlink:href="#CMR17-33" transform="scale(0.996264)"/>
       <use xlink:href="#CMR17-30" transform="translate(45.690477 0) scale(0.996264)"/>
       <use xlink:href="#CMR17-30" transform="translate(91.380954 0) scale(0.996264)"/>
       <use xlink:href="#CMR17-30" transform="translate(137.071431 0) scale(0.996264)"/>
       <use xlink:href="#CMR17-30" transform="translate(182.761908 0) scale(0.996264)"/>
      </g>
     </g>
    </g>
    <g id="ytick_16">
     <g id="line2d_51">
      <path d="M 423.100838 58.895527 
L 500.190785 58.895527 
" clip-path="url(#pb084234f11)" style="fill: none; stroke-dasharray: 1.11,0.48; stroke-dashoffset: 0; stroke: #a5a5a5; stroke-width: 0.3"/>
     </g>
     <g id="line2d_52">
      <g>
       <use xlink:href="#m613f803c68" x="423.100838" y="58.895527" style="stroke: #000000; stroke-width: 0.8"/>
      </g>
     </g>
     <g id="text_33">
      <!-- $\mathdefault{35000}$ -->
      <g transform="translate(394.929924 61.662928) scale(0.08 -0.08)">
       <use xlink:href="#CMR17-33" transform="scale(0.996264)"/>
       <use xlink:href="#CMR17-35" transform="translate(45.690477 0) scale(0.996264)"/>
       <use xlink:href="#CMR17-30" transform="translate(91.380954 0) scale(0.996264)"/>
       <use xlink:href="#CMR17-30" transform="translate(137.071431 0) scale(0.996264)"/>
       <use xlink:href="#CMR17-30" transform="translate(182.761908 0) scale(0.996264)"/>
      </g>
     </g>
    </g>
   </g>
   <g id="patch_18">
    <path d="M 423.100838 146.22492 
L 423.100838 42.325693 
" style="fill: none; stroke: #000000; stroke-width: 0.8; stroke-linejoin: miter; stroke-linecap: square"/>
   </g>
   <g id="patch_19">
    <path d="M 500.190785 146.22492 
L 500.190785 42.325693 
" style="fill: none; stroke: #000000; stroke-width: 0.8; stroke-linejoin: miter; stroke-linecap: square"/>
   </g>
   <g id="patch_20">
    <path d="M 423.100838 146.22492 
L 500.190785 146.22492 
" style="fill: none; stroke: #000000; stroke-width: 0.8; stroke-linejoin: miter; stroke-linecap: square"/>
   </g>
   <g id="patch_21">
    <path d="M 423.100838 42.325693 
L 500.190785 42.325693 
" style="fill: none; stroke: #000000; stroke-width: 0.8; stroke-linejoin: miter; stroke-linecap: square"/>
   </g>
   <g id="text_34">
    <!-- gf180 -->
    <g transform="translate(448.151417 36.325693) scale(0.12 -0.12)">
     <defs>
      <path id="CMR17-66" d="M 979 2560 
L 1709 2560 
L 1709 2725 
L 966 2725 
L 966 3494 
C 966 4022 1235 4352 1510 4352 
C 1594 4352 1690 4327 1754 4282 
C 1702 4269 1568 4225 1568 4067 
C 1568 3901 1696 3850 1786 3850 
C 1875 3850 2003 3901 2003 4067 
C 2003 4308 1773 4454 1517 4454 
C 1152 4454 653 4156 653 3481 
L 653 2725 
L 141 2725 
L 141 2560 
L 653 2560 
L 653 427 
C 653 184 627 153 218 153 
L 218 -13 
C 371 0 666 0 832 0 
C 1018 0 1344 0 1517 -13 
L 1517 153 
C 1056 153 979 153 979 439 
L 979 2560 
z
" transform="scale(0.015625)"/>
      <path id="CMR17-38" d="M 1741 2264 
C 2144 2467 2554 2773 2554 3263 
C 2554 3841 1990 4179 1472 4179 
C 890 4179 378 3759 378 3180 
C 378 3021 416 2747 666 2505 
C 730 2442 998 2251 1171 2130 
C 883 1983 211 1634 211 934 
C 211 279 838 -128 1459 -128 
C 2144 -128 2720 362 2720 1010 
C 2720 1590 2330 1857 2074 2029 
L 1741 2264 
z
M 902 2822 
C 851 2854 595 3051 595 3351 
C 595 3739 998 4032 1459 4032 
C 1965 4032 2336 3676 2336 3262 
C 2336 2669 1670 2331 1638 2331 
C 1632 2331 1626 2331 1574 2370 
L 902 2822 
z
M 2080 1519 
C 2176 1449 2483 1240 2483 851 
C 2483 381 2010 25 1472 25 
C 890 25 448 438 448 940 
C 448 1443 838 1862 1280 2060 
L 2080 1519 
z
" transform="scale(0.015625)"/>
     </defs>
     <use xlink:href="#CMR17-67" transform="scale(0.996264)"/>
     <use xlink:href="#CMR17-66" transform="translate(45.690477 0) scale(0.996264)"/>
     <use xlink:href="#CMR17-31" transform="translate(73.16399 0) scale(0.996264)"/>
     <use xlink:href="#CMR17-38" transform="translate(118.854467 0) scale(0.996264)"/>
     <use xlink:href="#CMR17-30" transform="translate(164.544944 0) scale(0.996264)"/>
    </g>
   </g>
  </g>
  <g id="text_35">
   <!-- Power (W) -->
   <g transform="translate(225.9122 199.464813) scale(0.12 -0.12)">
    <defs>
     <path id="CMR17-50" d="M 1267 2042 
L 2291 2042 
C 3117 2042 3718 2578 3718 3184 
C 3718 3791 3130 4352 2291 4352 
L 333 4352 
L 333 4186 
C 774 4186 845 4186 845 3899 
L 845 446 
C 845 160 774 160 333 160 
L 333 0 
C 518 0 858 0 1056 0 
C 1254 0 1594 0 1779 0 
L 1779 160 
C 1338 160 1267 160 1267 446 
L 1267 2042 
z
M 1254 2176 
L 1254 3938 
C 1254 4155 1267 4186 1523 4186 
L 2170 4186 
C 2995 4186 3232 3714 3232 3184 
C 3232 2604 2950 2176 2170 2176 
L 1254 2176 
z
" transform="scale(0.015625)"/>
     <path id="CMR17-6f" d="M 2758 1356 
C 2758 2176 2163 2816 1466 2816 
C 768 2816 173 2176 173 1356 
C 173 551 768 -64 1466 -64 
C 2163 -64 2758 551 2758 1356 
z
M 1466 51 
C 1165 51 909 230 762 480 
C 602 767 582 1126 582 1408 
C 582 1677 595 2010 762 2298 
C 890 2509 1139 2714 1466 2714 
C 1754 2714 1997 2554 2150 2330 
C 2349 2029 2349 1607 2349 1408 
C 2349 1158 2336 775 2163 467 
C 1984 173 1709 51 1466 51 
z
" transform="scale(0.015625)"/>
     <path id="CMR17-77" d="M 3725 2183 
C 3853 2560 4109 2560 4205 2560 
L 4205 2732 
C 4077 2732 3949 2732 3821 2732 
C 3699 2732 3424 2732 3315 2738 
L 3315 2560 
C 3514 2560 3622 2445 3622 2286 
C 3622 2241 3610 2184 3597 2140 
L 2995 407 
L 2342 2275 
C 2330 2319 2310 2370 2310 2395 
C 2310 2560 2528 2560 2630 2560 
L 2630 2738 
C 2483 2732 2214 2732 2061 2732 
C 1901 2732 1734 2732 1587 2738 
L 1587 2560 
C 1939 2560 1939 2547 2074 2149 
L 1485 451 
L 851 2281 
C 819 2363 819 2376 819 2395 
C 819 2560 1037 2560 1139 2560 
L 1139 2738 
C 986 2732 717 2732 557 2732 
C 416 2732 198 2732 64 2738 
L 64 2560 
C 346 2560 416 2541 486 2331 
L 1274 49 
C 1299 -33 1318 -52 1370 -52 
C 1414 -52 1440 -39 1472 56 
L 2131 1980 
L 2797 56 
C 2829 -39 2854 -52 2899 -52 
C 2950 -52 2970 -33 2995 50 
L 3725 2183 
z
" transform="scale(0.015625)"/>
     <path id="CMR17-72" d="M 960 1497 
C 960 2112 1222 2688 1702 2688 
C 1747 2688 1792 2682 1837 2662 
C 1837 2662 1696 2617 1696 2452 
C 1696 2298 1818 2234 1914 2234 
C 1990 2234 2131 2279 2131 2458 
C 2131 2663 1926 2790 1709 2790 
C 1222 2790 1011 2317 947 2093 
L 941 2093 
L 941 2790 
L 198 2720 
L 198 2554 
C 576 2554 634 2515 634 2208 
L 634 428 
C 634 184 608 153 198 153 
L 198 -13 
C 352 0 646 0 813 0 
C 998 0 1325 0 1498 -13 
L 1498 153 
C 1037 153 960 153 960 440 
L 960 1497 
z
" transform="scale(0.015625)"/>
     <path id="CMR17-28" d="M 1958 -1561 
C 1958 -1555 1958 -1542 1939 -1523 
C 1645 -1224 858 -407 858 1581 
C 858 3569 1632 4379 1946 4697 
C 1946 4704 1958 4717 1958 4736 
C 1958 4755 1939 4768 1914 4768 
C 1843 4768 1299 4296 986 3594 
C 666 2887 576 2199 576 1588 
C 576 1128 621 351 1005 -471 
C 1312 -1135 1837 -1600 1914 -1600 
C 1946 -1600 1958 -1587 1958 -1561 
z
" transform="scale(0.015625)"/>
     <path id="CMR17-57" d="M 5523 3764 
C 5581 3936 5677 4160 6048 4160 
L 6048 4326 
C 5939 4326 5715 4326 5600 4326 
C 5440 4326 5158 4326 5005 4332 
L 5005 4160 
C 5293 4160 5414 4000 5414 3847 
C 5414 3802 5408 3777 5382 3707 
L 4390 555 
L 3347 3873 
C 3328 3937 3322 3963 3322 3988 
C 3322 4160 3603 4160 3725 4160 
L 3725 4326 
C 3539 4326 3219 4326 3021 4326 
C 2861 4326 2573 4326 2426 4332 
L 2426 4160 
C 2720 4160 2797 4141 2861 4027 
C 2886 3969 2989 3638 2989 3619 
C 2989 3593 2976 3555 2970 3536 
L 2029 561 
L 986 3867 
C 954 3957 954 3969 954 3982 
C 954 4160 1235 4160 1363 4160 
L 1363 4326 
C 1178 4326 858 4326 659 4326 
C 493 4326 211 4326 58 4332 
L 58 4160 
C 442 4160 467 4122 531 3918 
L 1779 -20 
C 1811 -115 1811 -128 1869 -128 
C 1920 -128 1939 -115 1965 -26 
L 3053 3433 
L 4141 -26 
C 4166 -115 4186 -128 4237 -128 
C 4294 -128 4294 -115 4326 -20 
L 5523 3764 
z
" transform="scale(0.015625)"/>
     <path id="CMR17-29" d="M 1683 1581 
C 1683 2040 1638 2817 1254 3639 
C 947 4303 422 4768 346 4768 
C 326 4768 301 4761 301 4729 
C 301 4717 307 4710 314 4697 
C 621 4378 1402 3568 1402 1584 
C 1402 -407 627 -1217 314 -1537 
C 307 -1549 301 -1556 301 -1568 
C 301 -1600 326 -1600 346 -1600 
C 416 -1600 960 -1128 1274 -426 
C 1594 281 1683 969 1683 1581 
z
" transform="scale(0.015625)"/>
    </defs>
    <use xlink:href="#CMR17-50" transform="scale(0.996264)"/>
    <use xlink:href="#CMR17-6f" transform="translate(59.983847 0) scale(0.996264)"/>
    <use xlink:href="#CMR17-77" transform="translate(103.07187 0) scale(0.996264)"/>
    <use xlink:href="#CMR17-65" transform="translate(166.979296 0) scale(0.996264)"/>
    <use xlink:href="#CMR17-72" transform="translate(207.464957 0) scale(0.996264)"/>
    <use xlink:href="#CMR17-28" transform="translate(272.821691 0) scale(0.996264)"/>
    <use xlink:href="#CMR17-57" transform="translate(308.102459 0) scale(0.996264)"/>
    <use xlink:href="#CMR17-29" transform="translate(403.199109 0) scale(0.996264)"/>
   </g>
  </g>
  <g id="text_36">
   <!-- Count_cell (cells) -->
   <g transform="translate(16.166376 152.643927) rotate(-90) scale(0.12 -0.12)">
    <defs>
     <path id="CMR17-43" d="M 3974 4289 
C 3974 4403 3968 4410 3930 4410 
C 3904 4410 3898 4403 3853 4327 
L 3571 3792 
C 3258 4187 2874 4416 2381 4416 
C 1286 4416 294 3456 294 2148 
C 294 826 1286 -128 2387 -128 
C 3366 -128 3974 730 3974 1461 
C 3974 1524 3974 1550 3917 1550 
C 3866 1550 3866 1531 3859 1474 
C 3808 585 3168 38 2477 38 
C 1824 38 781 495 781 2147 
C 781 3805 1843 4250 2464 4250 
C 3187 4250 3712 3628 3834 2745 
C 3846 2668 3846 2655 3904 2655 
C 3974 2655 3974 2668 3974 2783 
L 3974 4289 
z
" transform="scale(0.015625)"/>
     <path id="CMR17-75" d="M 1882 2693 
L 1882 2528 
C 2259 2528 2317 2489 2317 2186 
L 2317 1032 
C 2317 500 2029 38 1555 38 
C 1030 38 986 348 986 678 
L 986 2763 
L 211 2693 
L 211 2528 
C 467 2528 640 2528 646 2274 
L 646 1058 
C 646 633 646 361 813 183 
C 896 101 1056 -64 1517 -64 
C 2061 -64 2272 377 2323 506 
L 2330 506 
L 2330 -63 
L 3091 -63 
L 3091 128 
C 2714 128 2656 166 2656 473 
L 2656 2763 
L 1882 2693 
z
" transform="scale(0.015625)"/>
     <path id="CMR17-63" d="M 2234 2240 
C 2112 2240 1933 2240 1933 2017 
C 1933 1838 2080 1787 2163 1787 
C 2208 1787 2394 1807 2394 2024 
C 2394 2467 1958 2803 1466 2803 
C 787 2803 211 2178 211 1363 
C 211 516 813 -64 1466 -64 
C 2259 -64 2458 677 2458 748 
C 2458 774 2451 793 2406 793 
C 2362 793 2355 787 2330 703 
C 2163 180 1798 51 1523 51 
C 1114 51 621 427 621 1369 
C 621 2338 1094 2688 1472 2688 
C 1722 2688 2093 2573 2234 2240 
z
" transform="scale(0.015625)"/>
     <path id="CMR17-6c" d="M 979 4396 
L 218 4326 
L 218 4160 
C 595 4160 653 4122 653 3817 
L 653 426 
C 653 184 627 153 218 153 
L 218 -13 
C 371 0 653 0 813 0 
C 979 0 1261 0 1414 -13 
L 1414 153 
C 1005 153 979 178 979 426 
L 979 4396 
z
" transform="scale(0.015625)"/>
    </defs>
    <use xlink:href="#CMR17-43" transform="scale(0.996264)"/>
    <use xlink:href="#CMR17-6f" transform="translate(66.509881 0) scale(0.996264)"/>
    <use xlink:href="#CMR17-75" transform="translate(112.200358 0) scale(0.996264)"/>
    <use xlink:href="#CMR17-6e" transform="translate(163.095727 0) scale(0.996264)"/>
    <use xlink:href="#CMR17-74" transform="translate(211.388643 0) scale(0.996264)"/>
    <use xlink:href="#CMR17-63" transform="translate(279.566631 0) scale(0.996264)"/>
    <use xlink:href="#CMR17-65" transform="translate(320.052291 0) scale(0.996264)"/>
    <use xlink:href="#CMR17-6c" transform="translate(360.537952 0) scale(0.996264)"/>
    <use xlink:href="#CMR17-6c" transform="translate(385.40901 0) scale(0.996264)"/>
    <use xlink:href="#CMR17-28" transform="translate(440.356035 0) scale(0.996264)"/>
    <use xlink:href="#CMR17-63" transform="translate(475.636803 0) scale(0.996264)"/>
    <use xlink:href="#CMR17-65" transform="translate(516.122463 0) scale(0.996264)"/>
    <use xlink:href="#CMR17-6c" transform="translate(556.608124 0) scale(0.996264)"/>
    <use xlink:href="#CMR17-6c" transform="translate(581.479182 0) scale(0.996264)"/>
    <use xlink:href="#CMR17-73" transform="translate(606.350241 0) scale(0.996264)"/>
    <use xlink:href="#CMR17-29" transform="translate(642.151578 0) scale(0.996264)"/>
    <path d="M 252.15204 0 
L 279.566631 0 
L 279.566631 0.3985 
L 252.15204 0.3985 
L 252.15204 0 
z
"/>
   </g>
  </g>
  <g id="legend_1">
   <g id="patch_22">
    <path d="M 22.320163 29.21799 
L 485.589177 29.21799 
L 485.589177 7.2 
L 22.320163 7.2 
z
" style="fill: #ffffff; stroke: #ffffff; stroke-linejoin: miter"/>
   </g>
   <g id="text_37">
    <!-- Design Categories -->
    <g transform="translate(214.934271 16.518498) scale(0.1 -0.1)">
     <defs>
      <path id="CMR17-44" d="M 333 4352 
L 333 4186 
C 774 4186 845 4186 845 3900 
L 845 452 
C 845 166 774 166 333 166 
L 333 0 
L 2368 0 
C 3398 0 4224 943 4224 2141 
C 4224 3346 3411 4352 2368 4352 
L 333 4352 
z
M 1523 166 
C 1267 166 1254 197 1254 414 
L 1254 3938 
C 1254 4155 1267 4186 1523 4186 
L 2240 4186 
C 2771 4186 3750 3874 3750 2141 
C 3750 1242 3488 879 3366 707 
C 3213 510 2848 166 2240 166 
L 1523 166 
z
" transform="scale(0.015625)"/>
      <path id="CMR17-69" d="M 992 3909 
C 992 4049 877 4170 730 4170 
C 589 4170 467 4056 467 3909 
C 467 3769 582 3648 730 3648 
C 870 3648 992 3763 992 3909 
z
M 243 2706 
L 243 2541 
C 602 2541 653 2502 653 2197 
L 653 427 
C 653 184 627 153 218 153 
L 218 -13 
C 371 0 646 0 806 0 
C 960 0 1222 0 1370 -13 
L 1370 153 
C 992 153 979 191 979 420 
L 979 2776 
L 243 2706 
z
" transform="scale(0.015625)"/>
     </defs>
     <use xlink:href="#CMR17-44" transform="scale(0.996264)"/>
     <use xlink:href="#CMR17-65" transform="translate(70.393556 0) scale(0.996264)"/>
     <use xlink:href="#CMR17-73" transform="translate(110.879216 0) scale(0.996264)"/>
     <use xlink:href="#CMR17-69" transform="translate(146.680554 0) scale(0.996264)"/>
     <use xlink:href="#CMR17-67" transform="translate(171.551612 0) scale(0.996264)"/>
     <use xlink:href="#CMR17-6e" transform="translate(217.24209 0) scale(0.996264)"/>
     <use xlink:href="#CMR17-43" transform="translate(298.213426 0) scale(0.996264)"/>
     <use xlink:href="#CMR17-61" transform="translate(364.723306 0) scale(0.996264)"/>
     <use xlink:href="#CMR17-74" transform="translate(410.413783 0) scale(0.996264)"/>
     <use xlink:href="#CMR17-65" transform="translate(445.694551 0) scale(0.996264)"/>
     <use xlink:href="#CMR17-67" transform="translate(486.180212 0) scale(0.996264)"/>
     <use xlink:href="#CMR17-6f" transform="translate(531.870689 0) scale(0.996264)"/>
     <use xlink:href="#CMR17-72" transform="translate(577.561166 0) scale(0.996264)"/>
     <use xlink:href="#CMR17-69" transform="translate(612.841934 0) scale(0.996264)"/>
     <use xlink:href="#CMR17-65" transform="translate(637.712992 0) scale(0.996264)"/>
     <use xlink:href="#CMR17-73" transform="translate(678.198653 0) scale(0.996264)"/>
    </g>
   </g>
   <g id="line2d_53">
    <path d="M 24.720163 23.555677 
L 31.470163 23.555677 
L 38.220163 23.555677 
" style="fill: none; stroke: #ffffff; stroke-linecap: square"/>
    <defs>
     <path id="mf2ac486930" d="M 0 5 
C 1.326016 5 2.597899 4.473168 3.535534 3.535534 
C 4.473168 2.597899 5 1.326016 5 0 
C 5 -1.326016 4.473168 -2.597899 3.535534 -3.535534 
C 2.597899 -4.473168 1.326016 -5 0 -5 
C -1.326016 -5 -2.597899 -4.473168 -3.535534 -3.535534 
C -4.473168 -2.597899 -5 -1.326016 -5 0 
C -5 1.326016 -4.473168 2.597899 -3.535534 3.535534 
C -2.597899 4.473168 -1.326016 5 0 5 
z
" style="stroke: #ffffff; stroke-width: 0.3"/>
    </defs>
    <g>
     <use xlink:href="#mf2ac486930" x="31.470163" y="23.555677" style="fill: #1f77b4; stroke: #ffffff; stroke-width: 0.3"/>
    </g>
   </g>
   <g id="text_38">
    <!-- posit8_alpha -->
    <g transform="translate(43.020163 25.655677) scale(0.06 -0.06)">
     <use xlink:href="#CMR17-70" transform="scale(0.996264)"/>
     <use xlink:href="#CMR17-6f" transform="translate(53.497809 0) scale(0.996264)"/>
     <use xlink:href="#CMR17-73" transform="translate(99.188286 0) scale(0.996264)"/>
     <use xlink:href="#CMR17-69" transform="translate(134.989623 0) scale(0.996264)"/>
     <use xlink:href="#CMR17-74" transform="translate(159.860682 0) scale(0.996264)"/>
     <use xlink:href="#CMR17-38" transform="translate(195.14145 0) scale(0.996264)"/>
     <use xlink:href="#CMR17-61" transform="translate(273.729146 0) scale(0.996264)"/>
     <use xlink:href="#CMR17-6c" transform="translate(319.419623 0) scale(0.996264)"/>
     <use xlink:href="#CMR17-70" transform="translate(344.290682 0) scale(0.996264)"/>
     <use xlink:href="#CMR17-68" transform="translate(395.186052 0) scale(0.996264)"/>
     <use xlink:href="#CMR17-61" transform="translate(446.081421 0) scale(0.996264)"/>
     <path d="M 246.314556 0 
L 273.729146 0 
L 273.729146 0.3985 
L 246.314556 0.3985 
L 246.314556 0 
z
"/>
    </g>
   </g>
   <g id="line2d_54">
    <path d="M 85.577952 23.555677 
L 92.327952 23.555677 
L 99.077952 23.555677 
" style="fill: none; stroke: #ffffff; stroke-linecap: square"/>
    <defs>
     <path id="md44b922dc4" d="M -0 5 
L 5 -5 
L -5 -5 
z
" style="stroke: #ffffff; stroke-width: 0.3; stroke-linejoin: miter"/>
    </defs>
    <g>
     <use xlink:href="#md44b922dc4" x="92.327952" y="23.555677" style="fill: #aec7e8; stroke: #ffffff; stroke-width: 0.3; stroke-linejoin: miter"/>
    </g>
   </g>
   <g id="text_39">
    <!-- posit8_beta -->
    <g transform="translate(103.877952 25.655677) scale(0.06 -0.06)">
     <defs>
      <path id="CMR17-62" d="M 960 4396 
L 198 4326 
L 198 4160 
C 576 4160 634 4122 634 3817 
L 634 -13 
L 749 -13 
L 934 441 
C 1120 141 1395 -64 1766 -64 
C 2406 -64 3053 500 3053 1370 
C 3053 2188 2477 2790 1830 2790 
C 1434 2790 1152 2579 960 2330 
L 960 4396 
z
M 973 2004 
C 973 2118 973 2138 1062 2272 
C 1312 2657 1670 2688 1792 2688 
C 1984 2688 2643 2585 2643 1376 
C 2643 108 1888 38 1734 38 
C 1536 38 1248 114 1043 486 
C 973 608 973 621 973 735 
L 973 2004 
z
" transform="scale(0.015625)"/>
     </defs>
     <use xlink:href="#CMR17-70" transform="scale(0.996264)"/>
     <use xlink:href="#CMR17-6f" transform="translate(53.497809 0) scale(0.996264)"/>
     <use xlink:href="#CMR17-73" transform="translate(99.188286 0) scale(0.996264)"/>
     <use xlink:href="#CMR17-69" transform="translate(134.989623 0) scale(0.996264)"/>
     <use xlink:href="#CMR17-74" transform="translate(159.860682 0) scale(0.996264)"/>
     <use xlink:href="#CMR17-38" transform="translate(195.14145 0) scale(0.996264)"/>
     <use xlink:href="#CMR17-62" transform="translate(273.729146 0) scale(0.996264)"/>
     <use xlink:href="#CMR17-65" transform="translate(327.226955 0) scale(0.996264)"/>
     <use xlink:href="#CMR17-74" transform="translate(367.712615 0) scale(0.996264)"/>
     <use xlink:href="#CMR17-61" transform="translate(402.993383 0) scale(0.996264)"/>
     <path d="M 246.314556 0 
L 273.729146 0 
L 273.729146 0.3985 
L 246.314556 0.3985 
L 246.314556 0 
z
"/>
    </g>
   </g>
   <g id="line2d_55">
    <path d="M 142.976531 23.555677 
L 149.726531 23.555677 
L 156.476531 23.555677 
" style="fill: none; stroke: #ffffff; stroke-linecap: square"/>
    <defs>
     <path id="m017f056949" d="M 0 -5 
L -5 5 
L 5 5 
z
" style="stroke: #ffffff; stroke-width: 0.3; stroke-linejoin: miter"/>
    </defs>
    <g>
     <use xlink:href="#m017f056949" x="149.726531" y="23.555677" style="fill: #ff7f0e; stroke: #ffffff; stroke-width: 0.3; stroke-linejoin: miter"/>
    </g>
   </g>
   <g id="text_40">
    <!-- posit4_alpha -->
    <g transform="translate(161.276531 25.655677) scale(0.06 -0.06)">
     <use xlink:href="#CMR17-70" transform="scale(0.996264)"/>
     <use xlink:href="#CMR17-6f" transform="translate(53.497809 0) scale(0.996264)"/>
     <use xlink:href="#CMR17-73" transform="translate(99.188286 0) scale(0.996264)"/>
     <use xlink:href="#CMR17-69" transform="translate(134.989623 0) scale(0.996264)"/>
     <use xlink:href="#CMR17-74" transform="translate(159.860682 0) scale(0.996264)"/>
     <use xlink:href="#CMR17-34" transform="translate(195.14145 0) scale(0.996264)"/>
     <use xlink:href="#CMR17-61" transform="translate(273.729146 0) scale(0.996264)"/>
     <use xlink:href="#CMR17-6c" transform="translate(319.419623 0) scale(0.996264)"/>
     <use xlink:href="#CMR17-70" transform="translate(344.290682 0) scale(0.996264)"/>
     <use xlink:href="#CMR17-68" transform="translate(395.186052 0) scale(0.996264)"/>
     <use xlink:href="#CMR17-61" transform="translate(446.081421 0) scale(0.996264)"/>
     <path d="M 246.314556 0 
L 273.729146 0 
L 273.729146 0.3985 
L 246.314556 0.3985 
L 246.314556 0 
z
"/>
    </g>
   </g>
   <g id="line2d_56">
    <path d="M 203.83432 23.555677 
L 210.58432 23.555677 
L 217.33432 23.555677 
" style="fill: none; stroke: #ffffff; stroke-linecap: square"/>
    <defs>
     <path id="m9e02f7ce94" d="M -5 -0 
L 5 5 
L 5 -5 
z
" style="stroke: #ffffff; stroke-width: 0.3; stroke-linejoin: miter"/>
    </defs>
    <g>
     <use xlink:href="#m9e02f7ce94" x="210.58432" y="23.555677" style="fill: #ffbb78; stroke: #ffffff; stroke-width: 0.3; stroke-linejoin: miter"/>
    </g>
   </g>
   <g id="text_41">
    <!-- posit4_beta -->
    <g transform="translate(222.13432 25.655677) scale(0.06 -0.06)">
     <use xlink:href="#CMR17-70" transform="scale(0.996264)"/>
     <use xlink:href="#CMR17-6f" transform="translate(53.497809 0) scale(0.996264)"/>
     <use xlink:href="#CMR17-73" transform="translate(99.188286 0) scale(0.996264)"/>
     <use xlink:href="#CMR17-69" transform="translate(134.989623 0) scale(0.996264)"/>
     <use xlink:href="#CMR17-74" transform="translate(159.860682 0) scale(0.996264)"/>
     <use xlink:href="#CMR17-34" transform="translate(195.14145 0) scale(0.996264)"/>
     <use xlink:href="#CMR17-62" transform="translate(273.729146 0) scale(0.996264)"/>
     <use xlink:href="#CMR17-65" transform="translate(327.226955 0) scale(0.996264)"/>
     <use xlink:href="#CMR17-74" transform="translate(367.712615 0) scale(0.996264)"/>
     <use xlink:href="#CMR17-61" transform="translate(402.993383 0) scale(0.996264)"/>
     <path d="M 246.314556 0 
L 273.729146 0 
L 273.729146 0.3985 
L 246.314556 0.3985 
L 246.314556 0 
z
"/>
    </g>
   </g>
   <g id="line2d_57">
    <path d="M 261.232898 23.555677 
L 267.982898 23.555677 
L 274.732898 23.555677 
" style="fill: none; stroke: #ffffff; stroke-linecap: square"/>
    <defs>
     <path id="ma98206e07d" d="M 5 0 
L -5 -5 
L -5 5 
z
" style="stroke: #ffffff; stroke-width: 0.3; stroke-linejoin: miter"/>
    </defs>
    <g>
     <use xlink:href="#ma98206e07d" x="267.982898" y="23.555677" style="fill: #2ca02c; stroke: #ffffff; stroke-width: 0.3; stroke-linejoin: miter"/>
    </g>
   </g>
   <g id="text_42">
    <!-- e4m3_alpha -->
    <g transform="translate(279.532898 25.655677) scale(0.06 -0.06)">
     <defs>
      <path id="CMR17-6d" d="M 4326 1933 
C 4326 2252 4269 2790 3507 2790 
C 3072 2790 2771 2496 2656 2151 
L 2650 2151 
C 2573 2676 2195 2790 1837 2790 
C 1331 2790 1069 2400 973 2144 
L 966 2144 
L 966 2790 
L 211 2720 
L 211 2554 
C 589 2554 646 2515 646 2208 
L 646 428 
C 646 184 621 153 211 153 
L 211 -13 
C 365 0 646 0 813 0 
C 979 0 1267 0 1421 -13 
L 1421 153 
C 1011 153 986 178 986 428 
L 986 1658 
C 986 2247 1344 2688 1792 2688 
C 2266 2688 2317 2266 2317 1958 
L 2317 428 
C 2317 184 2291 153 1882 153 
L 1882 -13 
C 2035 0 2317 0 2483 0 
C 2650 0 2938 0 3091 -13 
L 3091 153 
C 2682 153 2656 178 2656 428 
L 2656 1658 
C 2656 2247 3014 2688 3462 2688 
C 3936 2688 3987 2266 3987 1958 
L 3987 428 
C 3987 184 3962 153 3552 153 
L 3552 -13 
C 3706 0 3987 0 4154 0 
C 4320 0 4608 0 4762 -13 
L 4762 153 
C 4352 153 4326 178 4326 428 
L 4326 1933 
z
" transform="scale(0.015625)"/>
     </defs>
     <use xlink:href="#CMR17-65" transform="scale(0.996264)"/>
     <use xlink:href="#CMR17-34" transform="translate(40.48566 0) scale(0.996264)"/>
     <use xlink:href="#CMR17-6d" transform="translate(86.176138 0) scale(0.996264)"/>
     <use xlink:href="#CMR17-33" transform="translate(163.095727 0) scale(0.996264)"/>
     <use xlink:href="#CMR17-61" transform="translate(241.683424 0) scale(0.996264)"/>
     <use xlink:href="#CMR17-6c" transform="translate(287.373901 0) scale(0.996264)"/>
     <use xlink:href="#CMR17-70" transform="translate(312.24496 0) scale(0.996264)"/>
     <use xlink:href="#CMR17-68" transform="translate(363.140329 0) scale(0.996264)"/>
     <use xlink:href="#CMR17-61" transform="translate(414.035699 0) scale(0.996264)"/>
     <path d="M 214.268834 0 
L 241.683424 0 
L 241.683424 0.3985 
L 214.268834 0.3985 
L 214.268834 0 
z
"/>
    </g>
   </g>
   <g id="line2d_58">
    <path d="M 319.201573 23.555677 
L 325.951573 23.555677 
L 332.701573 23.555677 
" style="fill: none; stroke: #ffffff; stroke-linecap: square"/>
    <defs>
     <path id="m7c94d6a397" d="M -5 5 
L 5 5 
L 5 -5 
L -5 -5 
z
" style="stroke: #ffffff; stroke-width: 0.3; stroke-linejoin: miter"/>
    </defs>
    <g>
     <use xlink:href="#m7c94d6a397" x="325.951573" y="23.555677" style="fill: #98df8a; stroke: #ffffff; stroke-width: 0.3; stroke-linejoin: miter"/>
    </g>
   </g>
   <g id="text_43">
    <!-- e4m3_beta -->
    <g transform="translate(337.501573 25.655677) scale(0.06 -0.06)">
     <use xlink:href="#CMR17-65" transform="scale(0.996264)"/>
     <use xlink:href="#CMR17-34" transform="translate(40.48566 0) scale(0.996264)"/>
     <use xlink:href="#CMR17-6d" transform="translate(86.176138 0) scale(0.996264)"/>
     <use xlink:href="#CMR17-33" transform="translate(163.095727 0) scale(0.996264)"/>
     <use xlink:href="#CMR17-62" transform="translate(241.683424 0) scale(0.996264)"/>
     <use xlink:href="#CMR17-65" transform="translate(295.181233 0) scale(0.996264)"/>
     <use xlink:href="#CMR17-74" transform="translate(335.666893 0) scale(0.996264)"/>
     <use xlink:href="#CMR17-61" transform="translate(370.947661 0) scale(0.996264)"/>
     <path d="M 214.268834 0 
L 241.683424 0 
L 241.683424 0.3985 
L 214.268834 0.3985 
L 214.268834 0 
z
"/>
    </g>
   </g>
   <g id="line2d_59">
    <path d="M 373.711037 23.555677 
L 380.461037 23.555677 
L 387.211037 23.555677 
" style="fill: none; stroke: #ffffff; stroke-linecap: square"/>
    <defs>
     <path id="mcb49d5ce6e" d="M 0 -5 
L -4.755283 -1.545085 
L -2.938926 4.045085 
L 2.938926 4.045085 
L 4.755283 -1.545085 
z
" style="stroke: #ffffff; stroke-width: 0.3; stroke-linejoin: miter"/>
    </defs>
    <g>
     <use xlink:href="#mcb49d5ce6e" x="380.461037" y="23.555677" style="fill: #d62728; stroke: #ffffff; stroke-width: 0.3; stroke-linejoin: miter"/>
    </g>
   </g>
   <g id="text_44">
    <!-- e5m2_alpha -->
    <g transform="translate(392.011037 25.655677) scale(0.06 -0.06)">
     <use xlink:href="#CMR17-65" transform="scale(0.996264)"/>
     <use xlink:href="#CMR17-35" transform="translate(40.48566 0) scale(0.996264)"/>
     <use xlink:href="#CMR17-6d" transform="translate(86.176138 0) scale(0.996264)"/>
     <use xlink:href="#CMR17-32" transform="translate(163.095727 0) scale(0.996264)"/>
     <use xlink:href="#CMR17-61" transform="translate(241.683424 0) scale(0.996264)"/>
     <use xlink:href="#CMR17-6c" transform="translate(287.373901 0) scale(0.996264)"/>
     <use xlink:href="#CMR17-70" transform="translate(312.24496 0) scale(0.996264)"/>
     <use xlink:href="#CMR17-68" transform="translate(363.140329 0) scale(0.996264)"/>
     <use xlink:href="#CMR17-61" transform="translate(414.035699 0) scale(0.996264)"/>
     <path d="M 214.268834 0 
L 241.683424 0 
L 241.683424 0.3985 
L 214.268834 0.3985 
L 214.268834 0 
z
"/>
    </g>
   </g>
   <g id="line2d_60">
    <path d="M 431.679713 23.555677 
L 438.429713 23.555677 
L 445.179713 23.555677 
" style="fill: none; stroke: #ffffff; stroke-linecap: square"/>
    <defs>
     <path id="m903b509985" d="M 0 -5 
L -1.12257 -1.545085 
L -4.755283 -1.545085 
L -1.816356 0.59017 
L -2.938926 4.045085 
L -0 1.90983 
L 2.938926 4.045085 
L 1.816356 0.59017 
L 4.755283 -1.545085 
L 1.12257 -1.545085 
z
" style="stroke: #ffffff; stroke-width: 0.3; stroke-linejoin: bevel"/>
    </defs>
    <g>
     <use xlink:href="#m903b509985" x="438.429713" y="23.555677" style="fill: #ff9896; stroke: #ffffff; stroke-width: 0.3; stroke-linejoin: bevel"/>
    </g>
   </g>
   <g id="text_45">
    <!-- e5m2_beta -->
    <g transform="translate(449.979713 25.655677) scale(0.06 -0.06)">
     <use xlink:href="#CMR17-65" transform="scale(0.996264)"/>
     <use xlink:href="#CMR17-35" transform="translate(40.48566 0) scale(0.996264)"/>
     <use xlink:href="#CMR17-6d" transform="translate(86.176138 0) scale(0.996264)"/>
     <use xlink:href="#CMR17-32" transform="translate(163.095727 0) scale(0.996264)"/>
     <use xlink:href="#CMR17-62" transform="translate(241.683424 0) scale(0.996264)"/>
     <use xlink:href="#CMR17-65" transform="translate(295.181233 0) scale(0.996264)"/>
     <use xlink:href="#CMR17-74" transform="translate(335.666893 0) scale(0.996264)"/>
     <use xlink:href="#CMR17-61" transform="translate(370.947661 0) scale(0.996264)"/>
     <path d="M 214.268834 0 
L 241.683424 0 
L 241.683424 0.3985 
L 214.268834 0.3985 
L 214.268834 0 
z
"/>
    </g>
   </g>
  </g>
 </g>
 <defs>
  <clipPath id="pcd4936060c">
   <rect x="58.644638" y="42.325693" width="77.089946" height="103.899227"/>
  </clipPath>
  <clipPath id="pb2743de5f3">
   <rect x="180.130038" y="42.325693" width="77.089946" height="103.899227"/>
  </clipPath>
  <clipPath id="pca653cde07">
   <rect x="301.615438" y="42.325693" width="77.089946" height="103.899227"/>
  </clipPath>
  <clipPath id="pb084234f11">
   <rect x="423.100838" y="42.325693" width="77.089946" height="103.899227"/>
  </clipPath>
 </defs>
</svg>
